<?xml version="1.0" encoding="UTF-8" standalone="no"?>
<!DOCTYPE svg PUBLIC "-//W3C//DTD SVG 1.1//EN"
 "http://www.w3.org/Graphics/SVG/1.1/DTD/svg11.dtd">
<!-- Generated by graphviz version 2.43.0 (0)
 -->
<!-- Title: G Pages: 1 -->
<svg width="2321pt" height="395pt"
 viewBox="0.00 0.00 2320.94 395.00" xmlns="http://www.w3.org/2000/svg" xmlns:xlink="http://www.w3.org/1999/xlink">
<g id="graph0" class="graph" transform="scale(1 1) rotate(0) translate(4 391)">
<title>G</title>
<polygon fill="#eeeeee" stroke="transparent" points="-4,4 -4,-391 2316.94,-391 2316.94,4 -4,4"/>
<g id="clust1" class="cluster">
<title>cluster_inputs</title>
<polygon fill="#eeeeee" stroke="black" stroke-dasharray="5,2" points="620,-303 620,-379 1500,-379 1500,-303 620,-303"/>
<text text-anchor="middle" x="1433.5" y="-310.8" font-family="Times,serif" font-size="14.00">Workflow Inputs</text>
</g>
<g id="clust2" class="cluster">
<title>cluster_outputs</title>
<polygon fill="#eeeeee" stroke="black" stroke-dasharray="5,2" points="126,-8 126,-84 1475,-84 1475,-8 126,-8"/>
<text text-anchor="middle" x="1402.5" y="-15.8" font-family="Times,serif" font-size="14.00">Workflow Outputs</text>
</g>
<!-- macs3_q05 -->
<g id="node1" class="node">
<title>macs3_q05</title>
<polygon fill="lightgoldenrodyellow" stroke="black" points="728,-185.5 728,-221.5 1074,-221.5 1074,-185.5 728,-185.5"/>
<text text-anchor="middle" x="901" y="-199.8" font-family="Times,serif" font-size="14.00">MACS3 callpeak &#45; Peak calling without control</text>
</g>
<!-- bigbed_q05 -->
<g id="node2" class="node">
<title>bigbed_q05</title>
<polygon fill="lightgoldenrodyellow" stroke="black" points="1970.5,-112.5 1970.5,-148.5 2263.5,-148.5 2263.5,-112.5 1970.5,-112.5"/>
<text text-anchor="middle" x="2117" y="-126.8" font-family="Times,serif" font-size="14.00">bedToBigBed &#45; Convert BED to BigBed</text>
</g>
<!-- macs3_q05&#45;&gt;bigbed_q05 -->
<g id="edge1" class="edge">
<title>macs3_q05&#45;&gt;bigbed_q05</title>
<path fill="none" stroke="black" d="M1074.43,-197.06C1282.44,-189.78 1641.9,-174.8 1959.83,-149.15"/>
<polygon fill="black" stroke="black" points="1960.48,-152.61 1970.17,-148.31 1959.92,-145.63 1960.48,-152.61"/>
</g>
<!-- peaks_q05 -->
<g id="node25" class="node">
<title>peaks_q05</title>
<polygon fill="#94ddf4" stroke="black" points="767,-39.5 767,-75.5 859,-75.5 859,-39.5 767,-39.5"/>
<text text-anchor="middle" x="813" y="-53.8" font-family="Times,serif" font-size="14.00">peaks_q05</text>
</g>
<!-- macs3_q05&#45;&gt;peaks_q05 -->
<g id="edge40" class="edge">
<title>macs3_q05&#45;&gt;peaks_q05</title>
<path fill="none" stroke="black" d="M888.17,-185.49C880.56,-175.14 870.88,-161.54 863,-149 849.66,-127.78 835.99,-102.78 826.33,-84.44"/>
<polygon fill="black" stroke="black" points="829.4,-82.75 821.66,-75.51 823.19,-85.99 829.4,-82.75"/>
</g>
<!-- peaks_xls_q05 -->
<g id="node28" class="node">
<title>peaks_xls_q05</title>
<polygon fill="#94ddf4" stroke="black" points="629.5,-39.5 629.5,-75.5 748.5,-75.5 748.5,-39.5 629.5,-39.5"/>
<text text-anchor="middle" x="689" y="-53.8" font-family="Times,serif" font-size="14.00">peaks_xls_q05</text>
</g>
<!-- macs3_q05&#45;&gt;peaks_xls_q05 -->
<g id="edge43" class="edge">
<title>macs3_q05&#45;&gt;peaks_xls_q05</title>
<path fill="none" stroke="black" d="M875.85,-185.42C837.68,-159.49 765.07,-110.17 722.47,-81.24"/>
<polygon fill="black" stroke="black" points="724.36,-78.29 714.12,-75.56 720.42,-84.08 724.36,-78.29"/>
</g>
<!-- bb_q05 -->
<g id="node19" class="node">
<title>bb_q05</title>
<polygon fill="#94ddf4" stroke="black" points="1327,-39.5 1327,-75.5 1395,-75.5 1395,-39.5 1327,-39.5"/>
<text text-anchor="middle" x="1361" y="-53.8" font-family="Times,serif" font-size="14.00">bb_q05</text>
</g>
<!-- bigbed_q05&#45;&gt;bb_q05 -->
<g id="edge34" class="edge">
<title>bigbed_q05&#45;&gt;bb_q05</title>
<path fill="none" stroke="black" d="M1970.17,-112.69C1967.42,-112.45 1964.7,-112.22 1962,-112 1838.25,-101.92 1522.88,-119.82 1404,-84 1400.66,-82.99 1397.3,-81.67 1394.03,-80.16"/>
<polygon fill="black" stroke="black" points="1395.54,-77.01 1385.06,-75.51 1392.32,-83.22 1395.54,-77.01"/>
</g>
<!-- macs3_q10 -->
<g id="node3" class="node">
<title>macs3_q10</title>
<polygon fill="lightgoldenrodyellow" stroke="black" points="364,-185.5 364,-221.5 710,-221.5 710,-185.5 364,-185.5"/>
<text text-anchor="middle" x="537" y="-199.8" font-family="Times,serif" font-size="14.00">MACS3 callpeak &#45; Peak calling without control</text>
</g>
<!-- bigbed_q10 -->
<g id="node4" class="node">
<title>bigbed_q10</title>
<polygon fill="lightgoldenrodyellow" stroke="black" points="1254.5,-112.5 1254.5,-148.5 1547.5,-148.5 1547.5,-112.5 1254.5,-112.5"/>
<text text-anchor="middle" x="1401" y="-126.8" font-family="Times,serif" font-size="14.00">bedToBigBed &#45; Convert BED to BigBed</text>
</g>
<!-- macs3_q10&#45;&gt;bigbed_q10 -->
<g id="edge2" class="edge">
<title>macs3_q10&#45;&gt;bigbed_q10</title>
<path fill="none" stroke="black" d="M710.39,-185.72C713.28,-185.47 716.15,-185.23 719,-185 949.67,-166.04 1010.48,-170.05 1243.99,-149.16"/>
<polygon fill="black" stroke="black" points="1244.52,-152.63 1254.16,-148.25 1243.89,-145.66 1244.52,-152.63"/>
</g>
<!-- peaks_q10 -->
<g id="node26" class="node">
<title>peaks_q10</title>
<polygon fill="#94ddf4" stroke="black" points="382,-39.5 382,-75.5 474,-75.5 474,-39.5 382,-39.5"/>
<text text-anchor="middle" x="428" y="-53.8" font-family="Times,serif" font-size="14.00">peaks_q10</text>
</g>
<!-- macs3_q10&#45;&gt;peaks_q10 -->
<g id="edge41" class="edge">
<title>macs3_q10&#45;&gt;peaks_q10</title>
<path fill="none" stroke="black" d="M524.07,-185.42C504.97,-160.19 469.12,-112.83 447.03,-83.64"/>
<polygon fill="black" stroke="black" points="449.74,-81.42 440.91,-75.56 444.16,-85.65 449.74,-81.42"/>
</g>
<!-- peaks_xls_q10 -->
<g id="node29" class="node">
<title>peaks_xls_q10</title>
<polygon fill="#94ddf4" stroke="black" points="492.5,-39.5 492.5,-75.5 611.5,-75.5 611.5,-39.5 492.5,-39.5"/>
<text text-anchor="middle" x="552" y="-53.8" font-family="Times,serif" font-size="14.00">peaks_xls_q10</text>
</g>
<!-- macs3_q10&#45;&gt;peaks_xls_q10 -->
<g id="edge44" class="edge">
<title>macs3_q10&#45;&gt;peaks_xls_q10</title>
<path fill="none" stroke="black" d="M538.78,-185.42C541.35,-160.73 546.13,-114.85 549.18,-85.54"/>
<polygon fill="black" stroke="black" points="552.67,-85.87 550.22,-75.56 545.71,-85.15 552.67,-85.87"/>
</g>
<!-- bb_q10 -->
<g id="node20" class="node">
<title>bb_q10</title>
<polygon fill="#94ddf4" stroke="black" points="1241,-39.5 1241,-75.5 1309,-75.5 1309,-39.5 1241,-39.5"/>
<text text-anchor="middle" x="1275" y="-53.8" font-family="Times,serif" font-size="14.00">bb_q10</text>
</g>
<!-- bigbed_q10&#45;&gt;bb_q10 -->
<g id="edge35" class="edge">
<title>bigbed_q10&#45;&gt;bb_q10</title>
<path fill="none" stroke="black" d="M1369.33,-112.46C1353.79,-104.03 1334.84,-93.61 1318,-84 1316.25,-83 1314.46,-81.97 1312.65,-80.93"/>
<polygon fill="black" stroke="black" points="1314,-77.66 1303.6,-75.64 1310.47,-83.71 1314,-77.66"/>
</g>
<!-- macs3_q20 -->
<g id="node5" class="node">
<title>macs3_q20</title>
<polygon fill="lightgoldenrodyellow" stroke="black" points="0,-185.5 0,-221.5 346,-221.5 346,-185.5 0,-185.5"/>
<text text-anchor="middle" x="173" y="-199.8" font-family="Times,serif" font-size="14.00">MACS3 callpeak &#45; Peak calling without control</text>
</g>
<!-- bigbed_q20 -->
<g id="node6" class="node">
<title>bigbed_q20</title>
<polygon fill="lightgoldenrodyellow" stroke="black" points="943.5,-112.5 943.5,-148.5 1236.5,-148.5 1236.5,-112.5 943.5,-112.5"/>
<text text-anchor="middle" x="1090" y="-126.8" font-family="Times,serif" font-size="14.00">bedToBigBed &#45; Convert BED to BigBed</text>
</g>
<!-- macs3_q20&#45;&gt;bigbed_q20 -->
<g id="edge3" class="edge">
<title>macs3_q20&#45;&gt;bigbed_q20</title>
<path fill="none" stroke="black" d="M346.39,-185.73C349.28,-185.49 352.15,-185.24 355,-185 554.4,-168.16 784.5,-151.93 933.36,-141.84"/>
<polygon fill="black" stroke="black" points="933.75,-145.33 943.5,-141.16 933.28,-138.34 933.75,-145.33"/>
</g>
<!-- peaks_q20 -->
<g id="node27" class="node">
<title>peaks_q20</title>
<polygon fill="#94ddf4" stroke="black" points="272,-39.5 272,-75.5 364,-75.5 364,-39.5 272,-39.5"/>
<text text-anchor="middle" x="318" y="-53.8" font-family="Times,serif" font-size="14.00">peaks_q20</text>
</g>
<!-- macs3_q20&#45;&gt;peaks_q20 -->
<g id="edge42" class="edge">
<title>macs3_q20&#45;&gt;peaks_q20</title>
<path fill="none" stroke="black" d="M190.2,-185.42C215.82,-159.98 264.11,-112.01 293.44,-82.89"/>
<polygon fill="black" stroke="black" points="296.19,-85.09 300.82,-75.56 291.26,-80.13 296.19,-85.09"/>
</g>
<!-- peaks_xls_q20 -->
<g id="node30" class="node">
<title>peaks_xls_q20</title>
<polygon fill="#94ddf4" stroke="black" points="134.5,-39.5 134.5,-75.5 253.5,-75.5 253.5,-39.5 134.5,-39.5"/>
<text text-anchor="middle" x="194" y="-53.8" font-family="Times,serif" font-size="14.00">peaks_xls_q20</text>
</g>
<!-- macs3_q20&#45;&gt;peaks_xls_q20 -->
<g id="edge45" class="edge">
<title>macs3_q20&#45;&gt;peaks_xls_q20</title>
<path fill="none" stroke="black" d="M175.49,-185.42C179.09,-160.73 185.78,-114.85 190.06,-85.54"/>
<polygon fill="black" stroke="black" points="193.53,-85.96 191.51,-75.56 186.61,-84.95 193.53,-85.96"/>
</g>
<!-- bb_q20 -->
<g id="node21" class="node">
<title>bb_q20</title>
<polygon fill="#94ddf4" stroke="black" points="1155,-39.5 1155,-75.5 1223,-75.5 1223,-39.5 1155,-39.5"/>
<text text-anchor="middle" x="1189" y="-53.8" font-family="Times,serif" font-size="14.00">bb_q20</text>
</g>
<!-- bigbed_q20&#45;&gt;bb_q20 -->
<g id="edge36" class="edge">
<title>bigbed_q20&#45;&gt;bb_q20</title>
<path fill="none" stroke="black" d="M1113.71,-112.49C1126.6,-103.25 1142.72,-91.69 1156.73,-81.64"/>
<polygon fill="black" stroke="black" points="1159.05,-84.29 1165.14,-75.61 1154.97,-78.6 1159.05,-84.29"/>
</g>
<!-- genomecov -->
<g id="node7" class="node">
<title>genomecov</title>
<polygon fill="lightgoldenrodyellow" stroke="black" points="1565.5,-112.5 1565.5,-148.5 1952.5,-148.5 1952.5,-112.5 1565.5,-112.5"/>
<text text-anchor="middle" x="1759" y="-126.8" font-family="Times,serif" font-size="14.00">bedtools genomecov &#45; Generate BedGraph coverage</text>
</g>
<!-- bigwig -->
<g id="node8" class="node">
<title>bigwig</title>
<polygon fill="lightgoldenrodyellow" stroke="black" points="1836.5,-39.5 1836.5,-75.5 2213.5,-75.5 2213.5,-39.5 1836.5,-39.5"/>
<text text-anchor="middle" x="2025" y="-53.8" font-family="Times,serif" font-size="14.00">bedGraphToBigWig &#45; Convert BedGraph to BigWig</text>
</g>
<!-- genomecov&#45;&gt;bigwig -->
<g id="edge4" class="edge">
<title>genomecov&#45;&gt;bigwig</title>
<path fill="none" stroke="black" d="M1822.71,-112.49C1861.34,-102.18 1910.77,-88.99 1951.1,-78.22"/>
<polygon fill="black" stroke="black" points="1952.13,-81.57 1960.88,-75.61 1950.32,-74.81 1952.13,-81.57"/>
</g>
<!-- bw -->
<g id="node22" class="node">
<title>bw</title>
<polygon fill="#94ddf4" stroke="black" points="1413,-39.5 1413,-75.5 1467,-75.5 1467,-39.5 1413,-39.5"/>
<text text-anchor="middle" x="1440" y="-53.8" font-family="Times,serif" font-size="14.00">bw</text>
</g>
<!-- fq2bam -->
<g id="node9" class="node">
<title>fq2bam</title>
<polygon fill="lightgoldenrodyellow" stroke="black" points="793.5,-258.5 793.5,-294.5 1296.5,-294.5 1296.5,-258.5 793.5,-258.5"/>
<text text-anchor="middle" x="1045" y="-272.8" font-family="Times,serif" font-size="14.00">Parabricks fq2bam &#45; GPU&#45;accelerated alignment, sorting, and dedup</text>
</g>
<!-- fq2bam&#45;&gt;macs3_q05 -->
<g id="edge8" class="edge">
<title>fq2bam&#45;&gt;macs3_q05</title>
<path fill="none" stroke="black" d="M1010.51,-258.49C990.79,-248.77 965.87,-236.49 944.79,-226.09"/>
<polygon fill="black" stroke="black" points="946.23,-222.9 935.71,-221.61 943.13,-229.18 946.23,-222.9"/>
</g>
<!-- fq2bam&#45;&gt;macs3_q10 -->
<g id="edge9" class="edge">
<title>fq2bam&#45;&gt;macs3_q10</title>
<path fill="none" stroke="black" d="M923.32,-258.49C846.62,-247.77 747.57,-233.93 668.97,-222.95"/>
<polygon fill="black" stroke="black" points="669.39,-219.47 659.01,-221.55 668.42,-226.4 669.39,-219.47"/>
</g>
<!-- fq2bam&#45;&gt;macs3_q20 -->
<g id="edge10" class="edge">
<title>fq2bam&#45;&gt;macs3_q20</title>
<path fill="none" stroke="black" d="M811.76,-258.49C680.9,-248.69 514.35,-235.77 356.76,-222.14"/>
<polygon fill="black" stroke="black" points="356.66,-218.62 346.39,-221.25 356.05,-225.6 356.66,-218.62"/>
</g>
<!-- fq2bam&#45;&gt;genomecov -->
<g id="edge7" class="edge">
<title>fq2bam&#45;&gt;genomecov</title>
<path fill="none" stroke="black" d="M1129.36,-258.49C1263.5,-231.43 1524.57,-178.78 1664.7,-150.52"/>
<polygon fill="black" stroke="black" points="1665.47,-153.93 1674.58,-148.53 1664.09,-147.07 1665.47,-153.93"/>
</g>
<!-- count_reads -->
<g id="node10" class="node">
<title>count_reads</title>
<polygon fill="lightgoldenrodyellow" stroke="black" points="1505,-185.5 1505,-221.5 1801,-221.5 1801,-185.5 1505,-185.5"/>
<text text-anchor="middle" x="1653" y="-199.8" font-family="Times,serif" font-size="14.00">samtools view &#45;c &#45; Count mapped reads</text>
</g>
<!-- fq2bam&#45;&gt;count_reads -->
<g id="edge5" class="edge">
<title>fq2bam&#45;&gt;count_reads</title>
<path fill="none" stroke="black" d="M1190.63,-258.49C1283.08,-247.7 1402.65,-233.74 1497.03,-222.71"/>
<polygon fill="black" stroke="black" points="1497.71,-226.16 1507.24,-221.52 1496.9,-219.2 1497.71,-226.16"/>
</g>
<!-- dedup_bam -->
<g id="node23" class="node">
<title>dedup_bam</title>
<polygon fill="#94ddf4" stroke="black" points="877,-39.5 877,-75.5 975,-75.5 975,-39.5 877,-39.5"/>
<text text-anchor="middle" x="926" y="-53.8" font-family="Times,serif" font-size="14.00">dedup_bam</text>
</g>
<!-- fq2bam&#45;&gt;dedup_bam -->
<g id="edge38" class="edge">
<title>fq2bam&#45;&gt;dedup_bam</title>
<path fill="none" stroke="black" d="M1062.03,-258.35C1079.19,-238.96 1100.78,-207.22 1083,-185 1037.47,-128.08 968.53,-205.92 923,-149 908.87,-131.33 911.57,-104.93 916.65,-85.19"/>
<polygon fill="black" stroke="black" points="920.02,-86.14 919.45,-75.56 913.3,-84.19 920.02,-86.14"/>
</g>
<!-- duplicate_metrics -->
<g id="node24" class="node">
<title>duplicate_metrics</title>
<polygon fill="#94ddf4" stroke="black" points="993.5,-39.5 993.5,-75.5 1136.5,-75.5 1136.5,-39.5 993.5,-39.5"/>
<text text-anchor="middle" x="1065" y="-53.8" font-family="Times,serif" font-size="14.00">duplicate_metrics</text>
</g>
<!-- fq2bam&#45;&gt;duplicate_metrics -->
<g id="edge39" class="edge">
<title>fq2bam&#45;&gt;duplicate_metrics</title>
<path fill="none" stroke="black" d="M1079.8,-258.44C1093.73,-249.64 1108.29,-237.47 1116,-222 1123.34,-207.28 1126.43,-197.71 1116,-185 1063.97,-121.6 987.03,-212.4 935,-149 924.57,-136.29 925.85,-125.66 935,-112 939.51,-105.26 974.37,-91.11 1006.85,-79.05"/>
<polygon fill="black" stroke="black" points="1008.19,-82.28 1016.37,-75.55 1005.77,-75.71 1008.19,-82.28"/>
</g>
<!-- count_reads&#45;&gt;genomecov -->
<g id="edge6" class="edge">
<title>count_reads&#45;&gt;genomecov</title>
<path fill="none" stroke="black" d="M1678.39,-185.49C1692.32,-176.17 1709.77,-164.47 1724.87,-154.36"/>
<polygon fill="black" stroke="black" points="1727.09,-157.09 1733.45,-148.61 1723.19,-151.27 1727.09,-157.09"/>
</g>
<!-- chrom_sizes -->
<g id="node11" class="node">
<title>chrom_sizes</title>
<polygon fill="#94ddf4" stroke="black" points="1388,-334.5 1388,-370.5 1492,-370.5 1492,-334.5 1388,-334.5"/>
<text text-anchor="middle" x="1440" y="-348.8" font-family="Times,serif" font-size="14.00">chrom_sizes</text>
</g>
<!-- chrom_sizes&#45;&gt;bigbed_q05 -->
<g id="edge11" class="edge">
<title>chrom_sizes&#45;&gt;bigbed_q05</title>
<path fill="none" stroke="black" d="M1492.28,-334.51C1615.28,-294.54 1922.53,-194.69 2054.82,-151.71"/>
<polygon fill="black" stroke="black" points="2055.99,-155.01 2064.42,-148.59 2053.82,-148.35 2055.99,-155.01"/>
</g>
<!-- chrom_sizes&#45;&gt;bigbed_q10 -->
<g id="edge12" class="edge">
<title>chrom_sizes&#45;&gt;bigbed_q10</title>
<path fill="none" stroke="black" d="M1461.74,-334.37C1472.77,-324.25 1485.07,-310.42 1491,-295 1496.9,-279.65 1496,-273.66 1491,-258 1478.25,-218.09 1447.81,-180.01 1425.85,-156.25"/>
<polygon fill="black" stroke="black" points="1428.19,-153.62 1418.77,-148.76 1423.1,-158.43 1428.19,-153.62"/>
</g>
<!-- chrom_sizes&#45;&gt;bigbed_q20 -->
<g id="edge13" class="edge">
<title>chrom_sizes&#45;&gt;bigbed_q20</title>
<path fill="none" stroke="black" d="M1429.22,-334.42C1406.94,-300.56 1352.41,-224.78 1287,-185 1262.22,-169.93 1233.14,-159.02 1205.05,-151.16"/>
<polygon fill="black" stroke="black" points="1205.74,-147.72 1195.17,-148.51 1203.92,-154.48 1205.74,-147.72"/>
</g>
<!-- chrom_sizes&#45;&gt;bigwig -->
<g id="edge14" class="edge">
<title>chrom_sizes&#45;&gt;bigwig</title>
<path fill="none" stroke="black" d="M1492.15,-349.03C1667.62,-339.36 2229.9,-297.05 2306,-149 2313.52,-134.37 2316.48,-124.67 2306,-112 2293.12,-96.44 2260.05,-85.36 2220.92,-77.5"/>
<polygon fill="black" stroke="black" points="2221.33,-74.01 2210.85,-75.56 2220.01,-80.89 2221.33,-74.01"/>
</g>
<!-- sample_id -->
<g id="node12" class="node">
<title>sample_id</title>
<polygon fill="#94ddf4" stroke="black" points="1282,-334.5 1282,-370.5 1370,-370.5 1370,-334.5 1282,-334.5"/>
<text text-anchor="middle" x="1326" y="-348.8" font-family="Times,serif" font-size="14.00">sample_id</text>
</g>
<!-- sample_id&#45;&gt;macs3_q05 -->
<g id="edge21" class="edge">
<title>sample_id&#45;&gt;macs3_q05</title>
<path fill="none" stroke="black" d="M1327.73,-334.16C1328.79,-312.92 1326.97,-277.37 1306,-258 1273.36,-227.85 1175.64,-214.4 1084.38,-208.52"/>
<polygon fill="black" stroke="black" points="1084.34,-205.01 1074.14,-207.89 1083.91,-212 1084.34,-205.01"/>
</g>
<!-- sample_id&#45;&gt;bigbed_q05 -->
<g id="edge15" class="edge">
<title>sample_id&#45;&gt;bigbed_q05</title>
<path fill="none" stroke="black" d="M1340.45,-334.04C1350.23,-323.41 1364.05,-310.47 1379,-303 1466.18,-259.44 1724.12,-268.07 1810,-222 1830.22,-211.15 1825.83,-195.94 1846,-185 1870.36,-171.79 1927.95,-159.6 1983.8,-150.21"/>
<polygon fill="black" stroke="black" points="1984.54,-153.63 1993.84,-148.55 1983.4,-146.73 1984.54,-153.63"/>
</g>
<!-- sample_id&#45;&gt;macs3_q10 -->
<g id="edge22" class="edge">
<title>sample_id&#45;&gt;macs3_q10</title>
<path fill="none" stroke="black" d="M1313.11,-334.15C1303.68,-322.97 1289.8,-309.37 1274,-303 1248.8,-292.83 811.72,-299.95 785,-295 765.38,-291.37 657.64,-250.78 590.79,-225.21"/>
<polygon fill="black" stroke="black" points="591.83,-221.86 581.24,-221.55 589.32,-228.4 591.83,-221.86"/>
</g>
<!-- sample_id&#45;&gt;bigbed_q10 -->
<g id="edge16" class="edge">
<title>sample_id&#45;&gt;bigbed_q10</title>
<path fill="none" stroke="black" d="M1346.35,-334.49C1357.24,-324.21 1369.85,-310.18 1377,-295 1397.86,-250.69 1401.57,-192.78 1401.73,-159.1"/>
<polygon fill="black" stroke="black" points="1405.23,-158.64 1401.67,-148.66 1398.23,-158.69 1405.23,-158.64"/>
</g>
<!-- sample_id&#45;&gt;macs3_q20 -->
<g id="edge23" class="edge">
<title>sample_id&#45;&gt;macs3_q20</title>
<path fill="none" stroke="black" d="M1313.12,-334.13C1303.68,-322.95 1289.81,-309.35 1274,-303 1243.07,-290.57 707.05,-299.37 674,-295 608.07,-286.27 594.19,-271.18 529,-258 460.09,-244.07 383.01,-232.05 318.24,-222.95"/>
<polygon fill="black" stroke="black" points="318.34,-219.43 307.95,-221.52 317.37,-226.37 318.34,-219.43"/>
</g>
<!-- sample_id&#45;&gt;bigbed_q20 -->
<g id="edge17" class="edge">
<title>sample_id&#45;&gt;bigbed_q20</title>
<path fill="none" stroke="black" d="M1331.81,-334.24C1337.38,-314.34 1343.07,-281.37 1329,-258 1295.36,-202.13 1227.86,-169.65 1173.15,-151.62"/>
<polygon fill="black" stroke="black" points="1174.03,-148.23 1163.44,-148.53 1171.91,-154.9 1174.03,-148.23"/>
</g>
<!-- sample_id&#45;&gt;genomecov -->
<g id="edge20" class="edge">
<title>sample_id&#45;&gt;genomecov</title>
<path fill="none" stroke="black" d="M1340.45,-334.04C1350.23,-323.41 1364.05,-310.47 1379,-303 1466.18,-259.44 1747.78,-297.01 1810,-222 1826.95,-201.57 1807.55,-174.71 1787.99,-155.58"/>
<polygon fill="black" stroke="black" points="1790.27,-152.91 1780.57,-148.65 1785.49,-158.03 1790.27,-152.91"/>
</g>
<!-- sample_id&#45;&gt;bigwig -->
<g id="edge18" class="edge">
<title>sample_id&#45;&gt;bigwig</title>
<path fill="none" stroke="black" d="M1339.25,-334.26C1348.92,-323.13 1363.08,-309.55 1379,-303 1399.98,-294.37 1560.49,-297.8 1583,-295 1660.76,-285.32 2223.66,-209.88 2273,-149 2302.42,-112.71 2269.09,-90.97 2218.32,-77.95"/>
<polygon fill="black" stroke="black" points="2218.84,-74.47 2208.3,-75.54 2217.21,-81.28 2218.84,-74.47"/>
</g>
<!-- sample_id&#45;&gt;fq2bam -->
<g id="edge19" class="edge">
<title>sample_id&#45;&gt;fq2bam</title>
<path fill="none" stroke="black" d="M1312.49,-334.14C1302.98,-323.26 1289.26,-310.01 1274,-303 1269.14,-300.77 1262.81,-298.73 1255.35,-296.85"/>
<polygon fill="black" stroke="black" points="1255.86,-293.38 1245.34,-294.58 1254.31,-300.21 1255.86,-293.38"/>
</g>
<!-- fastq_fwd -->
<g id="node13" class="node">
<title>fastq_fwd</title>
<polygon fill="#94ddf4" stroke="black" points="1071,-334.5 1071,-370.5 1157,-370.5 1157,-334.5 1071,-334.5"/>
<text text-anchor="middle" x="1114" y="-348.8" font-family="Times,serif" font-size="14.00">fastq_fwd</text>
</g>
<!-- fastq_fwd&#45;&gt;fq2bam -->
<g id="edge24" class="edge">
<title>fastq_fwd&#45;&gt;fq2bam</title>
<path fill="none" stroke="black" d="M1098,-334.34C1089.03,-324.72 1077.69,-312.56 1067.8,-301.96"/>
<polygon fill="black" stroke="black" points="1070.3,-299.5 1060.92,-294.57 1065.18,-304.27 1070.3,-299.5"/>
</g>
<!-- fastq_rev -->
<g id="node14" class="node">
<title>fastq_rev</title>
<polygon fill="#94ddf4" stroke="black" points="969.5,-334.5 969.5,-370.5 1052.5,-370.5 1052.5,-334.5 969.5,-334.5"/>
<text text-anchor="middle" x="1011" y="-348.8" font-family="Times,serif" font-size="14.00">fastq_rev</text>
</g>
<!-- fastq_rev&#45;&gt;fq2bam -->
<g id="edge25" class="edge">
<title>fastq_rev&#45;&gt;fq2bam</title>
<path fill="none" stroke="black" d="M1018.89,-334.34C1023.05,-325.28 1028.25,-313.97 1032.91,-303.82"/>
<polygon fill="black" stroke="black" points="1036.16,-305.12 1037.16,-294.57 1029.8,-302.2 1036.16,-305.12"/>
</g>
<!-- genome_fasta -->
<g id="node15" class="node">
<title>genome_fasta</title>
<polygon fill="#94ddf4" stroke="black" points="836.5,-334.5 836.5,-370.5 951.5,-370.5 951.5,-334.5 836.5,-334.5"/>
<text text-anchor="middle" x="894" y="-348.8" font-family="Times,serif" font-size="14.00">genome_fasta</text>
</g>
<!-- genome_fasta&#45;&gt;fq2bam -->
<g id="edge26" class="edge">
<title>genome_fasta&#45;&gt;fq2bam</title>
<path fill="none" stroke="black" d="M913.98,-334.32C926.74,-324.06 944.02,-311.43 961,-303 964.34,-301.34 967.8,-299.77 971.34,-298.28"/>
<polygon fill="black" stroke="black" points="972.82,-301.46 980.84,-294.53 970.25,-294.95 972.82,-301.46"/>
</g>
<!-- num_gpus -->
<g id="node16" class="node">
<title>num_gpus</title>
<polygon fill="#94ddf4" stroke="black" points="1175.5,-334.5 1175.5,-370.5 1264.5,-370.5 1264.5,-334.5 1175.5,-334.5"/>
<text text-anchor="middle" x="1220" y="-348.8" font-family="Times,serif" font-size="14.00">num_gpus</text>
</g>
<!-- num_gpus&#45;&gt;fq2bam -->
<g id="edge27" class="edge">
<title>num_gpus&#45;&gt;fq2bam</title>
<path fill="none" stroke="black" d="M1205.16,-334.16C1195.15,-323.57 1181.06,-310.64 1166,-303 1162.64,-301.3 1159.18,-299.71 1155.64,-298.22"/>
<polygon fill="black" stroke="black" points="1156.7,-294.88 1146.11,-294.54 1154.17,-301.41 1156.7,-294.88"/>
</g>
<!-- format -->
<g id="node17" class="node">
<title>format</title>
<polygon fill="#94ddf4" stroke="black" points="628.5,-334.5 628.5,-370.5 693.5,-370.5 693.5,-334.5 628.5,-334.5"/>
<text text-anchor="middle" x="661" y="-348.8" font-family="Times,serif" font-size="14.00">format</text>
</g>
<!-- format&#45;&gt;macs3_q05 -->
<g id="edge28" class="edge">
<title>format&#45;&gt;macs3_q05</title>
<path fill="none" stroke="black" d="M674.52,-334.05C682.36,-324.43 692.7,-312.53 703,-303 727.73,-280.13 734.5,-274.27 764,-258 787.29,-245.16 814.3,-233.91 838.16,-225.09"/>
<polygon fill="black" stroke="black" points="839.61,-228.28 847.82,-221.58 837.23,-221.7 839.61,-228.28"/>
</g>
<!-- format&#45;&gt;macs3_q10 -->
<g id="edge29" class="edge">
<title>format&#45;&gt;macs3_q10</title>
<path fill="none" stroke="black" d="M646.53,-334.35C624.69,-308.46 583.19,-259.25 558.01,-229.41"/>
<polygon fill="black" stroke="black" points="560.5,-226.93 551.37,-221.54 555.15,-231.44 560.5,-226.93"/>
</g>
<!-- format&#45;&gt;macs3_q20 -->
<g id="edge30" class="edge">
<title>format&#45;&gt;macs3_q20</title>
<path fill="none" stroke="black" d="M628.22,-341.63C548.85,-317.72 345.09,-256.34 239.17,-224.43"/>
<polygon fill="black" stroke="black" points="240.13,-221.07 229.54,-221.53 238.11,-227.77 240.13,-221.07"/>
</g>
<!-- genome_size -->
<g id="node18" class="node">
<title>genome_size</title>
<polygon fill="#94ddf4" stroke="black" points="711.5,-334.5 711.5,-370.5 818.5,-370.5 818.5,-334.5 711.5,-334.5"/>
<text text-anchor="middle" x="765" y="-348.8" font-family="Times,serif" font-size="14.00">genome_size</text>
</g>
<!-- genome_size&#45;&gt;macs3_q05 -->
<g id="edge31" class="edge">
<title>genome_size&#45;&gt;macs3_q05</title>
<path fill="none" stroke="black" d="M764.29,-334.39C764.34,-314.04 767.37,-280.04 785,-258 796.12,-244.1 811.66,-233.66 827.77,-225.87"/>
<polygon fill="black" stroke="black" points="829.61,-228.88 837.29,-221.59 826.73,-222.5 829.61,-228.88"/>
</g>
<!-- genome_size&#45;&gt;macs3_q10 -->
<g id="edge32" class="edge">
<title>genome_size&#45;&gt;macs3_q10</title>
<path fill="none" stroke="black" d="M744.55,-334.43C732.7,-324.81 717.33,-312.8 703,-303 661.35,-274.53 611.28,-245.48 577.1,-226.38"/>
<polygon fill="black" stroke="black" points="578.77,-223.3 568.33,-221.5 575.37,-229.42 578.77,-223.3"/>
</g>
<!-- genome_size&#45;&gt;macs3_q20 -->
<g id="edge33" class="edge">
<title>genome_size&#45;&gt;macs3_q20</title>
<path fill="none" stroke="black" d="M748.83,-334.44C737.22,-323.39 720.58,-309.83 703,-303 681.39,-294.61 621.94,-298.3 599,-295 590.62,-293.79 385.2,-249.92 262.73,-223.72"/>
<polygon fill="black" stroke="black" points="263.11,-220.22 252.6,-221.55 261.65,-227.06 263.11,-220.22"/>
</g>
</g>
</svg>
