<?xml version="1.0" encoding="UTF-8" standalone="no"?>
<!DOCTYPE svg PUBLIC "-//W3C//DTD SVG 1.1//EN"
 "http://www.w3.org/Graphics/SVG/1.1/DTD/svg11.dtd">
<!-- Generated by graphviz version 2.43.0 (0)
 -->
<!-- Title: G Pages: 1 -->
<svg width="2096pt" height="687pt"
 viewBox="0.00 0.00 2095.50 687.00" xmlns="http://www.w3.org/2000/svg" xmlns:xlink="http://www.w3.org/1999/xlink">
<g id="graph0" class="graph" transform="scale(1 1) rotate(0) translate(4 683)">
<title>G</title>
<polygon fill="#eeeeee" stroke="transparent" points="-4,4 -4,-683 2091.5,-683 2091.5,4 -4,4"/>
<g id="clust1" class="cluster">
<title>cluster_inputs</title>
<polygon fill="#eeeeee" stroke="black" stroke-dasharray="5,2" points="710.5,-595 710.5,-671 1484.5,-671 1484.5,-595 710.5,-595"/>
<text text-anchor="middle" x="1418" y="-602.8" font-family="Times,serif" font-size="14.00">Workflow Inputs</text>
</g>
<g id="clust2" class="cluster">
<title>cluster_outputs</title>
<polygon fill="#eeeeee" stroke="black" stroke-dasharray="5,2" points="735.5,-8 735.5,-84 1923.5,-84 1923.5,-8 735.5,-8"/>
<text text-anchor="middle" x="1851" y="-15.8" font-family="Times,serif" font-size="14.00">Workflow Outputs</text>
</g>
<!-- macs3_q05 -->
<g id="node1" class="node">
<title>macs3_q05</title>
<polygon fill="lightgoldenrodyellow" stroke="black" points="861.5,-185.5 861.5,-221.5 1207.5,-221.5 1207.5,-185.5 861.5,-185.5"/>
<text text-anchor="middle" x="1034.5" y="-199.8" font-family="Times,serif" font-size="14.00">MACS3 callpeak &#45; Peak calling without control</text>
</g>
<!-- bigbed_q05 -->
<g id="node2" class="node">
<title>bigbed_q05</title>
<polygon fill="lightgoldenrodyellow" stroke="black" points="765,-112.5 765,-148.5 1058,-148.5 1058,-112.5 765,-112.5"/>
<text text-anchor="middle" x="911.5" y="-126.8" font-family="Times,serif" font-size="14.00">bedToBigBed &#45; Convert BED to BigBed</text>
</g>
<!-- macs3_q05&#45;&gt;bigbed_q05 -->
<g id="edge1" class="edge">
<title>macs3_q05&#45;&gt;bigbed_q05</title>
<path fill="none" stroke="black" d="M1005.04,-185.49C988.58,-175.99 967.87,-164.04 950.12,-153.79"/>
<polygon fill="black" stroke="black" points="951.56,-150.58 941.15,-148.61 948.06,-156.64 951.56,-150.58"/>
</g>
<!-- peaks_q05 -->
<g id="node27" class="node">
<title>peaks_q05</title>
<polygon fill="#94ddf4" stroke="black" points="1017.5,-39.5 1017.5,-75.5 1109.5,-75.5 1109.5,-39.5 1017.5,-39.5"/>
<text text-anchor="middle" x="1063.5" y="-53.8" font-family="Times,serif" font-size="14.00">peaks_q05</text>
</g>
<!-- macs3_q05&#45;&gt;peaks_q05 -->
<g id="edge46" class="edge">
<title>macs3_q05&#45;&gt;peaks_q05</title>
<path fill="none" stroke="black" d="M1048.48,-185.36C1055.7,-175.4 1063.75,-162.23 1067.5,-149 1073.38,-128.26 1071.82,-103.78 1069.09,-85.51"/>
<polygon fill="black" stroke="black" points="1072.53,-84.82 1067.41,-75.55 1065.63,-85.99 1072.53,-84.82"/>
</g>
<!-- peaks_xls_q05 -->
<g id="node30" class="node">
<title>peaks_xls_q05</title>
<polygon fill="#94ddf4" stroke="black" points="1128,-39.5 1128,-75.5 1247,-75.5 1247,-39.5 1128,-39.5"/>
<text text-anchor="middle" x="1187.5" y="-53.8" font-family="Times,serif" font-size="14.00">peaks_xls_q05</text>
</g>
<!-- macs3_q05&#45;&gt;peaks_xls_q05 -->
<g id="edge49" class="edge">
<title>macs3_q05&#45;&gt;peaks_xls_q05</title>
<path fill="none" stroke="black" d="M1052.65,-185.42C1079.8,-159.87 1131.08,-111.6 1161.98,-82.52"/>
<polygon fill="black" stroke="black" points="1164.49,-84.96 1169.37,-75.56 1159.69,-79.87 1164.49,-84.96"/>
</g>
<!-- bb_q05 -->
<g id="node22" class="node">
<title>bb_q05</title>
<polygon fill="#94ddf4" stroke="black" points="931.5,-39.5 931.5,-75.5 999.5,-75.5 999.5,-39.5 931.5,-39.5"/>
<text text-anchor="middle" x="965.5" y="-53.8" font-family="Times,serif" font-size="14.00">bb_q05</text>
</g>
<!-- bigbed_q05&#45;&gt;bb_q05 -->
<g id="edge41" class="edge">
<title>bigbed_q05&#45;&gt;bb_q05</title>
<path fill="none" stroke="black" d="M924.57,-112.31C931.14,-103.68 939.22,-93.06 946.46,-83.53"/>
<polygon fill="black" stroke="black" points="949.28,-85.61 952.55,-75.53 943.71,-81.37 949.28,-85.61"/>
</g>
<!-- macs3_q10 -->
<g id="node3" class="node">
<title>macs3_q10</title>
<polygon fill="lightgoldenrodyellow" stroke="black" points="1301.5,-185.5 1301.5,-221.5 1647.5,-221.5 1647.5,-185.5 1301.5,-185.5"/>
<text text-anchor="middle" x="1474.5" y="-199.8" font-family="Times,serif" font-size="14.00">MACS3 callpeak &#45; Peak calling without control</text>
</g>
<!-- bigbed_q10 -->
<g id="node4" class="node">
<title>bigbed_q10</title>
<polygon fill="lightgoldenrodyellow" stroke="black" points="1153,-112.5 1153,-148.5 1446,-148.5 1446,-112.5 1153,-112.5"/>
<text text-anchor="middle" x="1299.5" y="-126.8" font-family="Times,serif" font-size="14.00">bedToBigBed &#45; Convert BED to BigBed</text>
</g>
<!-- macs3_q10&#45;&gt;bigbed_q10 -->
<g id="edge2" class="edge">
<title>macs3_q10&#45;&gt;bigbed_q10</title>
<path fill="none" stroke="black" d="M1432.58,-185.49C1408.09,-175.56 1376.98,-162.93 1351,-152.39"/>
<polygon fill="black" stroke="black" points="1352.26,-149.13 1341.68,-148.61 1349.63,-155.62 1352.26,-149.13"/>
</g>
<!-- peaks_q10 -->
<g id="node28" class="node">
<title>peaks_q10</title>
<polygon fill="#94ddf4" stroke="black" points="1489.5,-39.5 1489.5,-75.5 1581.5,-75.5 1581.5,-39.5 1489.5,-39.5"/>
<text text-anchor="middle" x="1535.5" y="-53.8" font-family="Times,serif" font-size="14.00">peaks_q10</text>
</g>
<!-- macs3_q10&#45;&gt;peaks_q10 -->
<g id="edge47" class="edge">
<title>macs3_q10&#45;&gt;peaks_q10</title>
<path fill="none" stroke="black" d="M1481.74,-185.42C1492.28,-160.52 1511.97,-114.04 1524.37,-84.77"/>
<polygon fill="black" stroke="black" points="1527.59,-86.14 1528.27,-75.56 1521.15,-83.4 1527.59,-86.14"/>
</g>
<!-- peaks_xls_q10 -->
<g id="node31" class="node">
<title>peaks_xls_q10</title>
<polygon fill="#94ddf4" stroke="black" points="1352,-39.5 1352,-75.5 1471,-75.5 1471,-39.5 1352,-39.5"/>
<text text-anchor="middle" x="1411.5" y="-53.8" font-family="Times,serif" font-size="14.00">peaks_xls_q10</text>
</g>
<!-- macs3_q10&#45;&gt;peaks_xls_q10 -->
<g id="edge50" class="edge">
<title>macs3_q10&#45;&gt;peaks_xls_q10</title>
<path fill="none" stroke="black" d="M1473.35,-185.38C1471.54,-166.57 1466.96,-135.88 1455.5,-112 1450.61,-101.81 1443.38,-91.9 1436.19,-83.42"/>
<polygon fill="black" stroke="black" points="1438.65,-80.92 1429.38,-75.78 1433.42,-85.58 1438.65,-80.92"/>
</g>
<!-- bb_q10 -->
<g id="node23" class="node">
<title>bb_q10</title>
<polygon fill="#94ddf4" stroke="black" points="1265.5,-39.5 1265.5,-75.5 1333.5,-75.5 1333.5,-39.5 1265.5,-39.5"/>
<text text-anchor="middle" x="1299.5" y="-53.8" font-family="Times,serif" font-size="14.00">bb_q10</text>
</g>
<!-- bigbed_q10&#45;&gt;bb_q10 -->
<g id="edge42" class="edge">
<title>bigbed_q10&#45;&gt;bb_q10</title>
<path fill="none" stroke="black" d="M1299.5,-112.31C1299.5,-104.29 1299.5,-94.55 1299.5,-85.57"/>
<polygon fill="black" stroke="black" points="1303,-85.53 1299.5,-75.53 1296,-85.53 1303,-85.53"/>
</g>
<!-- macs3_q20 -->
<g id="node5" class="node">
<title>macs3_q20</title>
<polygon fill="lightgoldenrodyellow" stroke="black" points="1741.5,-185.5 1741.5,-221.5 2087.5,-221.5 2087.5,-185.5 1741.5,-185.5"/>
<text text-anchor="middle" x="1914.5" y="-199.8" font-family="Times,serif" font-size="14.00">MACS3 callpeak &#45; Peak calling without control</text>
</g>
<!-- bigbed_q20 -->
<g id="node6" class="node">
<title>bigbed_q20</title>
<polygon fill="lightgoldenrodyellow" stroke="black" points="1551,-112.5 1551,-148.5 1844,-148.5 1844,-112.5 1551,-112.5"/>
<text text-anchor="middle" x="1697.5" y="-126.8" font-family="Times,serif" font-size="14.00">bedToBigBed &#45; Convert BED to BigBed</text>
</g>
<!-- macs3_q20&#45;&gt;bigbed_q20 -->
<g id="edge3" class="edge">
<title>macs3_q20&#45;&gt;bigbed_q20</title>
<path fill="none" stroke="black" d="M1862.52,-185.49C1831.62,-175.38 1792.22,-162.49 1759.67,-151.84"/>
<polygon fill="black" stroke="black" points="1760.4,-148.4 1749.8,-148.61 1758.22,-155.05 1760.4,-148.4"/>
</g>
<!-- peaks_q20 -->
<g id="node29" class="node">
<title>peaks_q20</title>
<polygon fill="#94ddf4" stroke="black" points="1823.5,-39.5 1823.5,-75.5 1915.5,-75.5 1915.5,-39.5 1823.5,-39.5"/>
<text text-anchor="middle" x="1869.5" y="-53.8" font-family="Times,serif" font-size="14.00">peaks_q20</text>
</g>
<!-- macs3_q20&#45;&gt;peaks_q20 -->
<g id="edge48" class="edge">
<title>macs3_q20&#45;&gt;peaks_q20</title>
<path fill="none" stroke="black" d="M1909.92,-185.39C1904.96,-167.12 1896.64,-137.37 1888.5,-112 1885.69,-103.23 1882.4,-93.74 1879.35,-85.21"/>
<polygon fill="black" stroke="black" points="1882.62,-83.97 1875.93,-75.76 1876.04,-86.35 1882.62,-83.97"/>
</g>
<!-- peaks_xls_q20 -->
<g id="node32" class="node">
<title>peaks_xls_q20</title>
<polygon fill="#94ddf4" stroke="black" points="1686,-39.5 1686,-75.5 1805,-75.5 1805,-39.5 1686,-39.5"/>
<text text-anchor="middle" x="1745.5" y="-53.8" font-family="Times,serif" font-size="14.00">peaks_xls_q20</text>
</g>
<!-- macs3_q20&#45;&gt;peaks_xls_q20 -->
<g id="edge51" class="edge">
<title>macs3_q20&#45;&gt;peaks_xls_q20</title>
<path fill="none" stroke="black" d="M1906.32,-185.2C1896.24,-165.39 1877.46,-132.96 1853.5,-112 1838.48,-98.86 1819.66,-88.08 1801.96,-79.73"/>
<polygon fill="black" stroke="black" points="1803.38,-76.54 1792.83,-75.59 1800.49,-82.91 1803.38,-76.54"/>
</g>
<!-- bb_q20 -->
<g id="node24" class="node">
<title>bb_q20</title>
<polygon fill="#94ddf4" stroke="black" points="1599.5,-39.5 1599.5,-75.5 1667.5,-75.5 1667.5,-39.5 1599.5,-39.5"/>
<text text-anchor="middle" x="1633.5" y="-53.8" font-family="Times,serif" font-size="14.00">bb_q20</text>
</g>
<!-- bigbed_q20&#45;&gt;bb_q20 -->
<g id="edge43" class="edge">
<title>bigbed_q20&#45;&gt;bb_q20</title>
<path fill="none" stroke="black" d="M1682.01,-112.31C1674.07,-103.5 1664.26,-92.63 1655.55,-82.96"/>
<polygon fill="black" stroke="black" points="1658.15,-80.61 1648.85,-75.53 1652.95,-85.3 1658.15,-80.61"/>
</g>
<!-- genomecov -->
<g id="node7" class="node">
<title>genomecov</title>
<polygon fill="lightgoldenrodyellow" stroke="black" points="229,-112.5 229,-148.5 616,-148.5 616,-112.5 229,-112.5"/>
<text text-anchor="middle" x="422.5" y="-126.8" font-family="Times,serif" font-size="14.00">bedtools genomecov &#45; Generate BedGraph coverage</text>
</g>
<!-- bigwig -->
<g id="node8" class="node">
<title>bigwig</title>
<polygon fill="lightgoldenrodyellow" stroke="black" points="264,-39.5 264,-75.5 641,-75.5 641,-39.5 264,-39.5"/>
<text text-anchor="middle" x="452.5" y="-53.8" font-family="Times,serif" font-size="14.00">bedGraphToBigWig &#45; Convert BedGraph to BigWig</text>
</g>
<!-- genomecov&#45;&gt;bigwig -->
<g id="edge4" class="edge">
<title>genomecov&#45;&gt;bigwig</title>
<path fill="none" stroke="black" d="M429.76,-112.31C433.23,-104.12 437.45,-94.12 441.31,-84.98"/>
<polygon fill="black" stroke="black" points="444.64,-86.1 445.3,-75.53 438.19,-83.38 444.64,-86.1"/>
</g>
<!-- bw -->
<g id="node25" class="node">
<title>bw</title>
<polygon fill="#94ddf4" stroke="black" points="743.5,-39.5 743.5,-75.5 797.5,-75.5 797.5,-39.5 743.5,-39.5"/>
<text text-anchor="middle" x="770.5" y="-53.8" font-family="Times,serif" font-size="14.00">bw</text>
</g>
<!-- fixmate -->
<g id="node9" class="node">
<title>fixmate</title>
<polygon fill="lightgoldenrodyellow" stroke="black" points="588,-404.5 588,-440.5 979,-440.5 979,-404.5 588,-404.5"/>
<text text-anchor="middle" x="783.5" y="-418.8" font-family="Times,serif" font-size="14.00">samtools fixmate &#45; Add mate score tags for markdup</text>
</g>
<!-- coord_sort -->
<g id="node10" class="node">
<title>coord_sort</title>
<polygon fill="lightgoldenrodyellow" stroke="black" points="753,-331.5 753,-367.5 950,-367.5 950,-331.5 753,-331.5"/>
<text text-anchor="middle" x="851.5" y="-345.8" font-family="Times,serif" font-size="14.00">samtools sort &#45; Sort BAM</text>
</g>
<!-- fixmate&#45;&gt;coord_sort -->
<g id="edge5" class="edge">
<title>fixmate&#45;&gt;coord_sort</title>
<path fill="none" stroke="black" d="M799.96,-404.31C808.4,-395.5 818.82,-384.63 828.08,-374.96"/>
<polygon fill="black" stroke="black" points="830.8,-377.17 835.19,-367.53 825.75,-372.33 830.8,-377.17"/>
</g>
<!-- markdup -->
<g id="node11" class="node">
<title>markdup</title>
<polygon fill="lightgoldenrodyellow" stroke="black" points="685.5,-258.5 685.5,-294.5 1017.5,-294.5 1017.5,-258.5 685.5,-258.5"/>
<text text-anchor="middle" x="851.5" y="-272.8" font-family="Times,serif" font-size="14.00">samtools markdup &#45; Remove PCR duplicates</text>
</g>
<!-- coord_sort&#45;&gt;markdup -->
<g id="edge13" class="edge">
<title>coord_sort&#45;&gt;markdup</title>
<path fill="none" stroke="black" d="M851.5,-331.31C851.5,-323.29 851.5,-313.55 851.5,-304.57"/>
<polygon fill="black" stroke="black" points="855,-304.53 851.5,-294.53 848,-304.53 855,-304.53"/>
</g>
<!-- markdup&#45;&gt;macs3_q05 -->
<g id="edge10" class="edge">
<title>markdup&#45;&gt;macs3_q05</title>
<path fill="none" stroke="black" d="M895.33,-258.49C921.06,-248.51 953.76,-235.82 981,-225.26"/>
<polygon fill="black" stroke="black" points="982.33,-228.49 990.39,-221.61 979.8,-221.97 982.33,-228.49"/>
</g>
<!-- markdup&#45;&gt;macs3_q10 -->
<g id="edge11" class="edge">
<title>markdup&#45;&gt;macs3_q10</title>
<path fill="none" stroke="black" d="M1000.72,-258.49C1095.55,-247.69 1218.22,-233.71 1314.97,-222.68"/>
<polygon fill="black" stroke="black" points="1315.61,-226.13 1325.15,-221.52 1314.81,-219.18 1315.61,-226.13"/>
</g>
<!-- markdup&#45;&gt;macs3_q20 -->
<g id="edge12" class="edge">
<title>markdup&#45;&gt;macs3_q20</title>
<path fill="none" stroke="black" d="M1017.63,-264.53C1180.4,-253.76 1435.52,-236.84 1656.5,-222 1680.72,-220.37 1706.22,-218.65 1731.38,-216.95"/>
<polygon fill="black" stroke="black" points="1731.63,-220.44 1741.37,-216.28 1731.16,-213.46 1731.63,-220.44"/>
</g>
<!-- markdup&#45;&gt;genomecov -->
<g id="edge8" class="edge">
<title>markdup&#45;&gt;genomecov</title>
<path fill="none" stroke="black" d="M685.23,-264.98C573.07,-256.15 442.36,-241.79 424.5,-222 409.26,-205.11 410.62,-178.38 414.67,-158.34"/>
<polygon fill="black" stroke="black" points="418.09,-159.1 416.97,-148.56 411.27,-157.5 418.09,-159.1"/>
</g>
<!-- count_reads -->
<g id="node12" class="node">
<title>count_reads</title>
<polygon fill="lightgoldenrodyellow" stroke="black" points="433.5,-185.5 433.5,-221.5 729.5,-221.5 729.5,-185.5 433.5,-185.5"/>
<text text-anchor="middle" x="581.5" y="-199.8" font-family="Times,serif" font-size="14.00">samtools view &#45;c &#45; Count mapped reads</text>
</g>
<!-- markdup&#45;&gt;count_reads -->
<g id="edge6" class="edge">
<title>markdup&#45;&gt;count_reads</title>
<path fill="none" stroke="black" d="M786.83,-258.49C747.63,-248.18 697.45,-234.99 656.51,-224.22"/>
<polygon fill="black" stroke="black" points="657.14,-220.77 646.58,-221.61 655.36,-227.54 657.14,-220.77"/>
</g>
<!-- dedup_bam -->
<g id="node26" class="node">
<title>dedup_bam</title>
<polygon fill="#94ddf4" stroke="black" points="815.5,-39.5 815.5,-75.5 913.5,-75.5 913.5,-39.5 815.5,-39.5"/>
<text text-anchor="middle" x="864.5" y="-53.8" font-family="Times,serif" font-size="14.00">dedup_bam</text>
</g>
<!-- markdup&#45;&gt;dedup_bam -->
<g id="edge45" class="edge">
<title>markdup&#45;&gt;dedup_bam</title>
<path fill="none" stroke="black" d="M828.36,-258.36C790.8,-228.37 723.87,-164.58 756.5,-112 760.15,-106.12 788.91,-92.01 815.83,-79.76"/>
<polygon fill="black" stroke="black" points="817.56,-82.82 825.23,-75.52 814.68,-76.44 817.56,-82.82"/>
</g>
<!-- count_reads&#45;&gt;genomecov -->
<g id="edge9" class="edge">
<title>count_reads&#45;&gt;genomecov</title>
<path fill="none" stroke="black" d="M543.42,-185.49C521.45,-175.69 493.64,-163.27 470.22,-152.81"/>
<polygon fill="black" stroke="black" points="471.38,-149.5 460.82,-148.61 468.53,-155.89 471.38,-149.5"/>
</g>
<!-- name_sort -->
<g id="node13" class="node">
<title>name_sort</title>
<polygon fill="lightgoldenrodyellow" stroke="black" points="685,-477.5 685,-513.5 882,-513.5 882,-477.5 685,-477.5"/>
<text text-anchor="middle" x="783.5" y="-491.8" font-family="Times,serif" font-size="14.00">samtools sort &#45; Sort BAM</text>
</g>
<!-- name_sort&#45;&gt;fixmate -->
<g id="edge7" class="edge">
<title>name_sort&#45;&gt;fixmate</title>
<path fill="none" stroke="black" d="M783.5,-477.31C783.5,-469.29 783.5,-459.55 783.5,-450.57"/>
<polygon fill="black" stroke="black" points="787,-450.53 783.5,-440.53 780,-450.53 787,-450.53"/>
</g>
<!-- align -->
<g id="node14" class="node">
<title>align</title>
<polygon fill="lightgoldenrodyellow" stroke="black" points="0,-550.5 0,-586.5 263,-586.5 263,-550.5 0,-550.5"/>
<text text-anchor="middle" x="131.5" y="-564.8" font-family="Times,serif" font-size="14.00">BWA&#45;MEM2 &#45; Fast genome aligner</text>
</g>
<!-- align&#45;&gt;name_sort -->
<g id="edge14" class="edge">
<title>align&#45;&gt;name_sort</title>
<path fill="none" stroke="black" d="M263.05,-553.17C384.1,-539.99 561.53,-520.67 674.76,-508.34"/>
<polygon fill="black" stroke="black" points="675.27,-511.81 684.84,-507.24 674.52,-504.85 675.27,-511.81"/>
</g>
<!-- fastq_fwd -->
<g id="node15" class="node">
<title>fastq_fwd</title>
<polygon fill="#94ddf4" stroke="black" points="820.5,-626.5 820.5,-662.5 906.5,-662.5 906.5,-626.5 820.5,-626.5"/>
<text text-anchor="middle" x="863.5" y="-640.8" font-family="Times,serif" font-size="14.00">fastq_fwd</text>
</g>
<!-- fastq_fwd&#45;&gt;align -->
<g id="edge15" class="edge">
<title>fastq_fwd&#45;&gt;align</title>
<path fill="none" stroke="black" d="M850.61,-626.14C841.18,-614.96 827.3,-601.36 811.5,-595 783.98,-583.92 307.1,-588.99 277.5,-587 276.17,-586.91 274.84,-586.82 273.51,-586.72"/>
<polygon fill="black" stroke="black" points="273.4,-583.2 263.16,-585.92 272.86,-590.18 273.4,-583.2"/>
</g>
<!-- fastq_rev -->
<g id="node16" class="node">
<title>fastq_rev</title>
<polygon fill="#94ddf4" stroke="black" points="719,-626.5 719,-662.5 802,-662.5 802,-626.5 719,-626.5"/>
<text text-anchor="middle" x="760.5" y="-640.8" font-family="Times,serif" font-size="14.00">fastq_rev</text>
</g>
<!-- fastq_rev&#45;&gt;align -->
<g id="edge16" class="edge">
<title>fastq_rev&#45;&gt;align</title>
<path fill="none" stroke="black" d="M718.82,-638.67C635.16,-628.95 440.78,-606.34 277.5,-587 276.18,-586.84 274.86,-586.69 273.52,-586.53"/>
<polygon fill="black" stroke="black" points="273.56,-583.01 263.21,-585.3 272.73,-589.96 273.56,-583.01"/>
</g>
<!-- genome_fasta -->
<g id="node17" class="node">
<title>genome_fasta</title>
<polygon fill="#94ddf4" stroke="black" points="925,-626.5 925,-662.5 1040,-662.5 1040,-626.5 925,-626.5"/>
<text text-anchor="middle" x="982.5" y="-640.8" font-family="Times,serif" font-size="14.00">genome_fasta</text>
</g>
<!-- genome_fasta&#45;&gt;align -->
<g id="edge17" class="edge">
<title>genome_fasta&#45;&gt;align</title>
<path fill="none" stroke="black" d="M965.18,-626.3C952.57,-615.03 934.45,-601.27 915.5,-595 881.85,-583.86 312.87,-589.33 277.5,-587 276.17,-586.91 274.84,-586.82 273.51,-586.73"/>
<polygon fill="black" stroke="black" points="273.39,-583.21 263.15,-585.94 272.86,-590.19 273.39,-583.21"/>
</g>
<!-- sample_id -->
<g id="node18" class="node">
<title>sample_id</title>
<polygon fill="#94ddf4" stroke="black" points="1058.5,-626.5 1058.5,-662.5 1146.5,-662.5 1146.5,-626.5 1058.5,-626.5"/>
<text text-anchor="middle" x="1102.5" y="-640.8" font-family="Times,serif" font-size="14.00">sample_id</text>
</g>
<!-- sample_id&#45;&gt;macs3_q05 -->
<g id="edge26" class="edge">
<title>sample_id&#45;&gt;macs3_q05</title>
<path fill="none" stroke="black" d="M1098.84,-626.39C1093.32,-599.07 1083.5,-543.85 1083.5,-496.5 1083.5,-496.5 1083.5,-496.5 1083.5,-348.5 1083.5,-305.51 1063.68,-258.96 1049.25,-230.76"/>
<polygon fill="black" stroke="black" points="1052.18,-228.8 1044.42,-221.59 1045.99,-232.07 1052.18,-228.8"/>
</g>
<!-- sample_id&#45;&gt;bigbed_q05 -->
<g id="edge19" class="edge">
<title>sample_id&#45;&gt;bigbed_q05</title>
<path fill="none" stroke="black" d="M1089.24,-626.26C1079.57,-615.14 1065.41,-601.56 1049.5,-595 1008.78,-578.23 894.5,-596.51 851.5,-587 717.54,-557.35 640.76,-563.77 579.5,-441 541.81,-365.46 636.38,-294.57 676.5,-258 684.44,-250.77 804.11,-187.67 869.53,-153.42"/>
<polygon fill="black" stroke="black" points="871.53,-156.32 878.77,-148.58 868.29,-150.12 871.53,-156.32"/>
</g>
<!-- sample_id&#45;&gt;macs3_q10 -->
<g id="edge27" class="edge">
<title>sample_id&#45;&gt;macs3_q10</title>
<path fill="none" stroke="black" d="M1112.47,-626.32C1136.09,-586.09 1198.11,-483.17 1259.5,-404 1313.29,-334.63 1325.65,-314.88 1392.5,-258 1405.79,-246.69 1421.62,-235.84 1435.8,-226.91"/>
<polygon fill="black" stroke="black" points="1437.71,-229.84 1444.38,-221.61 1434.04,-223.89 1437.71,-229.84"/>
</g>
<!-- sample_id&#45;&gt;bigbed_q10 -->
<g id="edge20" class="edge">
<title>sample_id&#45;&gt;bigbed_q10</title>
<path fill="none" stroke="black" d="M1108.41,-626.2C1114.88,-607.39 1125.65,-576.46 1135.5,-550 1190.93,-401.1 1261.93,-224.32 1288.67,-158.2"/>
<polygon fill="black" stroke="black" points="1292.06,-159.14 1292.57,-148.56 1285.58,-156.52 1292.06,-159.14"/>
</g>
<!-- sample_id&#45;&gt;macs3_q20 -->
<g id="edge28" class="edge">
<title>sample_id&#45;&gt;macs3_q20</title>
<path fill="none" stroke="black" d="M1115.8,-626.37C1125.49,-615.28 1139.65,-601.72 1155.5,-595 1182.56,-583.53 1261.97,-601.55 1287.5,-587 1372.86,-538.36 1335.27,-465.98 1411.5,-404 1543.86,-296.37 1607.35,-319.46 1766.5,-258 1795.78,-246.69 1828.59,-234.76 1855.86,-225.04"/>
<polygon fill="black" stroke="black" points="1857.39,-228.21 1865.64,-221.56 1855.05,-221.61 1857.39,-228.21"/>
</g>
<!-- sample_id&#45;&gt;bigbed_q20 -->
<g id="edge21" class="edge">
<title>sample_id&#45;&gt;bigbed_q20</title>
<path fill="none" stroke="black" d="M1121.06,-626.35C1131.19,-617.03 1143.99,-605.33 1155.5,-595 1287.69,-476.38 1309.85,-432.64 1455.5,-331 1538.84,-272.84 1587.26,-296.38 1656.5,-222 1673.24,-204.02 1684.04,-178.04 1690.33,-158.52"/>
<polygon fill="black" stroke="black" points="1693.76,-159.3 1693.3,-148.71 1687.05,-157.27 1693.76,-159.3"/>
</g>
<!-- sample_id&#45;&gt;genomecov -->
<g id="edge25" class="edge">
<title>sample_id&#45;&gt;genomecov</title>
<path fill="none" stroke="black" d="M1089.28,-626.17C1079.63,-615 1065.47,-601.41 1049.5,-595 1012.16,-580.02 727.37,-592.41 687.5,-587 606.19,-575.97 329.5,-578.56 329.5,-496.5 329.5,-496.5 329.5,-496.5 329.5,-275.5 329.5,-227.08 367.07,-182.04 394.45,-155.64"/>
<polygon fill="black" stroke="black" points="396.95,-158.09 401.86,-148.7 392.17,-152.98 396.95,-158.09"/>
</g>
<!-- sample_id&#45;&gt;bigwig -->
<g id="edge22" class="edge">
<title>sample_id&#45;&gt;bigwig</title>
<path fill="none" stroke="black" d="M1089.3,-626.12C1079.66,-614.93 1065.51,-601.33 1049.5,-595 1015.3,-581.47 420.79,-602.65 387.5,-587 184.84,-491.74 80,-287.16 219.5,-112 231.54,-96.89 265.64,-85.69 304.17,-77.56"/>
<polygon fill="black" stroke="black" points="304.94,-80.97 314.05,-75.56 303.55,-74.11 304.94,-80.97"/>
</g>
<!-- sample_id&#45;&gt;fixmate -->
<g id="edge24" class="edge">
<title>sample_id&#45;&gt;fixmate</title>
<path fill="none" stroke="black" d="M1088.59,-626.3C1078.84,-615.48 1064.84,-602.25 1049.5,-595 1026.77,-584.26 1015.77,-598.67 993.5,-587 934.44,-556.06 944.92,-516.9 891.5,-477 874.65,-464.41 854.38,-453.46 835.98,-444.8"/>
<polygon fill="black" stroke="black" points="837.38,-441.6 826.83,-440.61 834.47,-447.96 837.38,-441.6"/>
</g>
<!-- sample_id&#45;&gt;coord_sort -->
<g id="edge23" class="edge">
<title>sample_id&#45;&gt;coord_sort</title>
<path fill="none" stroke="black" d="M1086.48,-626.27C1076.52,-616.25 1063.07,-603.88 1049.5,-595 1042.18,-590.2 1037.08,-593.74 1031.5,-587 978.21,-522.65 1043.25,-467.11 988.5,-404 976.15,-389.76 959.52,-379.29 942.12,-371.59"/>
<polygon fill="black" stroke="black" points="942.98,-368.15 932.4,-367.59 940.31,-374.63 942.98,-368.15"/>
</g>
<!-- sample_id&#45;&gt;markdup -->
<g id="edge29" class="edge">
<title>sample_id&#45;&gt;markdup</title>
<path fill="none" stroke="black" d="M1090.97,-626.24C1074.31,-599.6 1045.5,-546.32 1045.5,-496.5 1045.5,-496.5 1045.5,-496.5 1045.5,-421.5 1045.5,-357.86 977.36,-319.07 921.84,-298.04"/>
<polygon fill="black" stroke="black" points="922.94,-294.71 912.35,-294.56 920.54,-301.29 922.94,-294.71"/>
</g>
<!-- sample_id&#45;&gt;name_sort -->
<g id="edge30" class="edge">
<title>sample_id&#45;&gt;name_sort</title>
<path fill="none" stroke="black" d="M1089.19,-626.39C1079.5,-615.31 1065.33,-601.75 1049.5,-595 1024.1,-584.18 951.75,-595.58 925.5,-587 881.68,-572.68 837.97,-541.66 810.86,-519.95"/>
<polygon fill="black" stroke="black" points="812.95,-517.15 802.99,-513.54 808.53,-522.57 812.95,-517.15"/>
</g>
<!-- sample_id&#45;&gt;align -->
<g id="edge18" class="edge">
<title>sample_id&#45;&gt;align</title>
<path fill="none" stroke="black" d="M1089.3,-626.11C1079.66,-614.92 1065.51,-601.32 1049.5,-595 1029.55,-587.13 298.9,-588.39 277.5,-587 276.17,-586.91 274.84,-586.82 273.51,-586.73"/>
<polygon fill="black" stroke="black" points="273.39,-583.21 263.15,-585.95 272.86,-590.19 273.39,-583.21"/>
</g>
<!-- chrom_sizes -->
<g id="node19" class="node">
<title>chrom_sizes</title>
<polygon fill="#94ddf4" stroke="black" points="1164.5,-626.5 1164.5,-662.5 1268.5,-662.5 1268.5,-626.5 1164.5,-626.5"/>
<text text-anchor="middle" x="1216.5" y="-640.8" font-family="Times,serif" font-size="14.00">chrom_sizes</text>
</g>
<!-- chrom_sizes&#45;&gt;bigbed_q05 -->
<g id="edge31" class="edge">
<title>chrom_sizes&#45;&gt;bigbed_q05</title>
<path fill="none" stroke="black" d="M1219.59,-626.24C1224.39,-595.17 1231.15,-528.31 1211.5,-477 1165.93,-358.01 1136,-323.15 1026.5,-258 958.63,-217.62 902.36,-283.24 852.5,-222 835.1,-200.63 857.11,-173.97 879.03,-155.14"/>
<polygon fill="black" stroke="black" points="881.52,-157.63 887.03,-148.58 877.08,-152.22 881.52,-157.63"/>
</g>
<!-- chrom_sizes&#45;&gt;bigbed_q10 -->
<g id="edge32" class="edge">
<title>chrom_sizes&#45;&gt;bigbed_q10</title>
<path fill="none" stroke="black" d="M1238.67,-626.22C1259.25,-610.13 1286.81,-588.41 1287.5,-587 1366.11,-426.54 1279.78,-363.23 1292.5,-185 1293.11,-176.46 1294.18,-167.2 1295.3,-158.82"/>
<polygon fill="black" stroke="black" points="1298.78,-159.19 1296.71,-148.8 1291.85,-158.21 1298.78,-159.19"/>
</g>
<!-- chrom_sizes&#45;&gt;bigbed_q20 -->
<g id="edge33" class="edge">
<title>chrom_sizes&#45;&gt;bigbed_q20</title>
<path fill="none" stroke="black" d="M1233.69,-626.32C1245.36,-615.66 1261.68,-602.59 1278.5,-595 1296.22,-587 1304.28,-596.02 1321.5,-587 1423.52,-533.54 1640.56,-326.27 1689.5,-222 1698.74,-202.31 1700.35,-177.56 1699.86,-158.93"/>
<polygon fill="black" stroke="black" points="1703.35,-158.57 1699.38,-148.75 1696.36,-158.9 1703.35,-158.57"/>
</g>
<!-- chrom_sizes&#45;&gt;bigwig -->
<g id="edge34" class="edge">
<title>chrom_sizes&#45;&gt;bigwig</title>
<path fill="none" stroke="black" d="M1208.27,-626.13C1181.41,-571.63 1090.48,-403.33 959.5,-331 848.51,-269.71 800.66,-320.72 676.5,-295 562.32,-271.35 494.55,-315.22 424.5,-222 414.62,-208.85 413.95,-197.61 424.5,-185 482.74,-115.4 567.26,-218.6 625.5,-149 653.75,-115.24 608.81,-92.44 557.67,-78.17"/>
<polygon fill="black" stroke="black" points="558.28,-74.71 547.72,-75.52 556.48,-81.48 558.28,-74.71"/>
</g>
<!-- format -->
<g id="node20" class="node">
<title>format</title>
<polygon fill="#94ddf4" stroke="black" points="1287,-626.5 1287,-662.5 1352,-662.5 1352,-626.5 1287,-626.5"/>
<text text-anchor="middle" x="1319.5" y="-640.8" font-family="Times,serif" font-size="14.00">format</text>
</g>
<!-- format&#45;&gt;macs3_q05 -->
<g id="edge35" class="edge">
<title>format&#45;&gt;macs3_q05</title>
<path fill="none" stroke="black" d="M1338.08,-626.05C1347.67,-615.73 1358.41,-601.82 1363.5,-587 1368.84,-571.45 1368.41,-565.69 1363.5,-550 1328.11,-436.93 1294.7,-415.35 1211.5,-331 1169.39,-288.3 1111.43,-249.91 1073.48,-226.91"/>
<polygon fill="black" stroke="black" points="1075.13,-223.82 1064.75,-221.67 1071.53,-229.82 1075.13,-223.82"/>
</g>
<!-- format&#45;&gt;macs3_q10 -->
<g id="edge36" class="edge">
<title>format&#45;&gt;macs3_q10</title>
<path fill="none" stroke="black" d="M1329.68,-626.13C1337.05,-615.24 1348.06,-601.99 1361.5,-595 1376.96,-586.96 1427.25,-599.39 1439.5,-587 1536.07,-489.37 1499.92,-301.3 1482.09,-231.47"/>
<polygon fill="black" stroke="black" points="1485.44,-230.46 1479.51,-221.68 1478.67,-232.24 1485.44,-230.46"/>
</g>
<!-- format&#45;&gt;macs3_q20 -->
<g id="edge37" class="edge">
<title>format&#45;&gt;macs3_q20</title>
<path fill="none" stroke="black" d="M1329.29,-626.49C1336.64,-615.46 1347.77,-601.91 1361.5,-595 1403.7,-573.76 1424.3,-606.14 1467.5,-587 1661.81,-500.91 1642.15,-382.35 1814.5,-258 1830.94,-246.14 1850.32,-235.17 1867.63,-226.29"/>
<polygon fill="black" stroke="black" points="1869.64,-229.2 1877,-221.58 1866.49,-222.94 1869.64,-229.2"/>
</g>
<!-- genome_size -->
<g id="node21" class="node">
<title>genome_size</title>
<polygon fill="#94ddf4" stroke="black" points="1370,-626.5 1370,-662.5 1477,-662.5 1477,-626.5 1370,-626.5"/>
<text text-anchor="middle" x="1423.5" y="-640.8" font-family="Times,serif" font-size="14.00">genome_size</text>
</g>
<!-- genome_size&#45;&gt;macs3_q05 -->
<g id="edge38" class="edge">
<title>genome_size&#45;&gt;macs3_q05</title>
<path fill="none" stroke="black" d="M1418.43,-626.48C1405.6,-585.27 1368.79,-478.07 1312.5,-404 1255.82,-329.42 1239.79,-307.87 1160.5,-258 1140,-245.1 1115.85,-234 1094.21,-225.3"/>
<polygon fill="black" stroke="black" points="1095.37,-221.99 1084.78,-221.6 1092.81,-228.51 1095.37,-221.99"/>
</g>
<!-- genome_size&#45;&gt;macs3_q10 -->
<g id="edge39" class="edge">
<title>genome_size&#45;&gt;macs3_q10</title>
<path fill="none" stroke="black" d="M1477.2,-634.56C1504.99,-626.91 1536.56,-612.83 1553.5,-587 1629.68,-470.83 1533.34,-295.64 1491.82,-230.28"/>
<polygon fill="black" stroke="black" points="1494.71,-228.31 1486.34,-221.81 1488.83,-232.11 1494.71,-228.31"/>
</g>
<!-- genome_size&#45;&gt;macs3_q20 -->
<g id="edge40" class="edge">
<title>genome_size&#45;&gt;macs3_q20</title>
<path fill="none" stroke="black" d="M1477.4,-634.23C1582.03,-614.71 1802.5,-565.4 1802.5,-496.5 1802.5,-496.5 1802.5,-496.5 1802.5,-348.5 1802.5,-297.11 1847.49,-253.02 1880.44,-227.62"/>
<polygon fill="black" stroke="black" points="1882.61,-230.36 1888.52,-221.57 1878.42,-224.76 1882.61,-230.36"/>
</g>
</g>
</svg>
