<?xml version="1.0" encoding="UTF-8" standalone="no"?>
<!DOCTYPE svg PUBLIC "-//W3C//DTD SVG 1.1//EN"
 "http://www.w3.org/Graphics/SVG/1.1/DTD/svg11.dtd">
<!-- Generated by graphviz version 2.43.0 (0)
 -->
<!-- Title: G Pages: 1 -->
<svg width="1883pt" height="760pt"
 viewBox="0.00 0.00 1883.00 760.00" xmlns="http://www.w3.org/2000/svg" xmlns:xlink="http://www.w3.org/1999/xlink">
<g id="graph0" class="graph" transform="scale(1 1) rotate(0) translate(4 756)">
<title>G</title>
<polygon fill="#eeeeee" stroke="transparent" points="-4,4 -4,-756 1879,-756 1879,4 -4,4"/>
<g id="clust1" class="cluster">
<title>cluster_inputs</title>
<polygon fill="#eeeeee" stroke="black" stroke-dasharray="5,2" points="578.5,-668 578.5,-744 1353.5,-744 1353.5,-668 578.5,-668"/>
<text text-anchor="middle" x="1287" y="-675.8" font-family="Times,serif" font-size="14.00">Workflow Inputs</text>
</g>
<g id="clust2" class="cluster">
<title>cluster_outputs</title>
<polygon fill="#eeeeee" stroke="black" stroke-dasharray="5,2" points="188.5,-8 188.5,-84 1593.5,-84 1593.5,-8 188.5,-8"/>
<text text-anchor="middle" x="1521" y="-15.8" font-family="Times,serif" font-size="14.00">Workflow Outputs</text>
</g>
<!-- trim -->
<g id="node1" class="node">
<title>trim</title>
<polygon fill="lightgoldenrodyellow" stroke="black" points="0,-623.5 0,-659.5 317,-659.5 317,-623.5 0,-623.5"/>
<text text-anchor="middle" x="158.5" y="-637.8" font-family="Times,serif" font-size="14.00">fastp &#45; Fast all&#45;in&#45;one FASTQ preprocessor</text>
</g>
<!-- align -->
<g id="node2" class="node">
<title>align</title>
<polygon fill="lightgoldenrodyellow" stroke="black" points="130,-550.5 130,-586.5 393,-586.5 393,-550.5 130,-550.5"/>
<text text-anchor="middle" x="261.5" y="-564.8" font-family="Times,serif" font-size="14.00">BWA&#45;MEM2 &#45; Fast genome aligner</text>
</g>
<!-- trim&#45;&gt;align -->
<g id="edge1" class="edge">
<title>trim&#45;&gt;align</title>
<path fill="none" stroke="black" d="M177.56,-623.31C190.12,-613.98 206.87,-602.33 222.15,-592.25"/>
<polygon fill="black" stroke="black" points="224.46,-594.92 230.93,-586.53 220.64,-589.05 224.46,-594.92"/>
</g>
<!-- trim&#45;&gt;align -->
<g id="edge2" class="edge">
<title>trim&#45;&gt;align</title>
<path fill="none" stroke="black" d="M189.03,-623.49C203.42,-614.25 220.36,-602.69 234.3,-592.64"/>
<polygon fill="black" stroke="black" points="236.54,-595.34 242.54,-586.61 232.41,-589.69 236.54,-595.34"/>
</g>
<!-- fastp_html -->
<g id="node26" class="node">
<title>fastp_html</title>
<polygon fill="#94ddf4" stroke="black" points="303.5,-39.5 303.5,-75.5 395.5,-75.5 395.5,-39.5 303.5,-39.5"/>
<text text-anchor="middle" x="349.5" y="-53.8" font-family="Times,serif" font-size="14.00">fastp_html</text>
</g>
<!-- trim&#45;&gt;fastp_html -->
<g id="edge44" class="edge">
<title>trim&#45;&gt;fastp_html</title>
<path fill="none" stroke="black" d="M143.5,-623.3C135.55,-613.32 126.25,-600.15 120.5,-587 104.03,-549.34 101.5,-537.6 101.5,-496.5 101.5,-496.5 101.5,-496.5 101.5,-202.5 101.5,-179.42 231.61,-114.23 303.35,-80.04"/>
<polygon fill="black" stroke="black" points="305.11,-83.08 312.64,-75.62 302.1,-76.75 305.11,-83.08"/>
</g>
<!-- fastp_json -->
<g id="node27" class="node">
<title>fastp_json</title>
<polygon fill="#94ddf4" stroke="black" points="196,-39.5 196,-75.5 285,-75.5 285,-39.5 196,-39.5"/>
<text text-anchor="middle" x="240.5" y="-53.8" font-family="Times,serif" font-size="14.00">fastp_json</text>
</g>
<!-- trim&#45;&gt;fastp_json -->
<g id="edge45" class="edge">
<title>trim&#45;&gt;fastp_json</title>
<path fill="none" stroke="black" d="M126.99,-623.33C113.01,-614.23 97.49,-601.86 87.5,-587 64.27,-552.47 63.5,-538.11 63.5,-496.5 63.5,-496.5 63.5,-496.5 63.5,-202.5 63.5,-160.89 59.23,-142.54 87.5,-112 112.88,-84.58 153.09,-71.21 185.91,-64.7"/>
<polygon fill="black" stroke="black" points="186.63,-68.12 195.84,-62.89 185.37,-61.24 186.63,-68.12"/>
</g>
<!-- name_sort -->
<g id="node13" class="node">
<title>name_sort</title>
<polygon fill="lightgoldenrodyellow" stroke="black" points="572,-477.5 572,-513.5 769,-513.5 769,-477.5 572,-477.5"/>
<text text-anchor="middle" x="670.5" y="-491.8" font-family="Times,serif" font-size="14.00">samtools sort &#45; Sort BAM</text>
</g>
<!-- align&#45;&gt;name_sort -->
<g id="edge13" class="edge">
<title>align&#45;&gt;name_sort</title>
<path fill="none" stroke="black" d="M359.47,-550.49C420.59,-539.88 499.34,-526.21 562.31,-515.28"/>
<polygon fill="black" stroke="black" points="563.02,-518.71 572.27,-513.55 561.82,-511.81 563.02,-518.71"/>
</g>
<!-- markdup -->
<g id="node3" class="node">
<title>markdup</title>
<polygon fill="lightgoldenrodyellow" stroke="black" points="541.5,-258.5 541.5,-294.5 873.5,-294.5 873.5,-258.5 541.5,-258.5"/>
<text text-anchor="middle" x="707.5" y="-272.8" font-family="Times,serif" font-size="14.00">samtools markdup &#45; Remove PCR duplicates</text>
</g>
<!-- bamcoverage -->
<g id="node4" class="node">
<title>bamcoverage</title>
<polygon fill="lightgoldenrodyellow" stroke="black" points="129,-185.5 129,-221.5 454,-221.5 454,-185.5 129,-185.5"/>
<text text-anchor="middle" x="291.5" y="-199.8" font-family="Times,serif" font-size="14.00">deepTools bamCoverage &#45; Generate bigWig</text>
</g>
<!-- markdup&#45;&gt;bamcoverage -->
<g id="edge3" class="edge">
<title>markdup&#45;&gt;bamcoverage</title>
<path fill="none" stroke="black" d="M607.86,-258.49C545.68,-247.88 465.59,-234.21 401.55,-223.28"/>
<polygon fill="black" stroke="black" points="401.86,-219.78 391.41,-221.55 400.68,-226.68 401.86,-219.78"/>
</g>
<!-- macs3_q05 -->
<g id="node5" class="node">
<title>macs3_q05</title>
<polygon fill="lightgoldenrodyellow" stroke="black" points="1351.5,-185.5 1351.5,-221.5 1697.5,-221.5 1697.5,-185.5 1351.5,-185.5"/>
<text text-anchor="middle" x="1524.5" y="-199.8" font-family="Times,serif" font-size="14.00">MACS3 callpeak &#45; Peak calling without control</text>
</g>
<!-- markdup&#45;&gt;macs3_q05 -->
<g id="edge9" class="edge">
<title>markdup&#45;&gt;macs3_q05</title>
<path fill="none" stroke="black" d="M873.82,-261.05C1009.59,-249.25 1201.24,-232.59 1341.37,-220.41"/>
<polygon fill="black" stroke="black" points="1341.71,-223.9 1351.37,-219.55 1341.11,-216.92 1341.71,-223.9"/>
</g>
<!-- macs3_q10 -->
<g id="node7" class="node">
<title>macs3_q10</title>
<polygon fill="lightgoldenrodyellow" stroke="black" points="509.5,-185.5 509.5,-221.5 855.5,-221.5 855.5,-185.5 509.5,-185.5"/>
<text text-anchor="middle" x="682.5" y="-199.8" font-family="Times,serif" font-size="14.00">MACS3 callpeak &#45; Peak calling without control</text>
</g>
<!-- markdup&#45;&gt;macs3_q10 -->
<g id="edge10" class="edge">
<title>markdup&#45;&gt;macs3_q10</title>
<path fill="none" stroke="black" d="M701.45,-258.31C698.56,-250.12 695.04,-240.12 691.83,-230.98"/>
<polygon fill="black" stroke="black" points="695.12,-229.8 688.5,-221.53 688.52,-232.12 695.12,-229.8"/>
</g>
<!-- macs3_q20 -->
<g id="node9" class="node">
<title>macs3_q20</title>
<polygon fill="lightgoldenrodyellow" stroke="black" points="911.5,-185.5 911.5,-221.5 1257.5,-221.5 1257.5,-185.5 911.5,-185.5"/>
<text text-anchor="middle" x="1084.5" y="-199.8" font-family="Times,serif" font-size="14.00">MACS3 callpeak &#45; Peak calling without control</text>
</g>
<!-- markdup&#45;&gt;macs3_q20 -->
<g id="edge11" class="edge">
<title>markdup&#45;&gt;macs3_q20</title>
<path fill="none" stroke="black" d="M797.8,-258.49C853.91,-247.93 926.14,-234.32 984.05,-223.42"/>
<polygon fill="black" stroke="black" points="984.78,-226.84 993.96,-221.55 983.48,-219.96 984.78,-226.84"/>
</g>
<!-- dedup_bam -->
<g id="node25" class="node">
<title>dedup_bam</title>
<polygon fill="#94ddf4" stroke="black" points="485.5,-39.5 485.5,-75.5 583.5,-75.5 583.5,-39.5 485.5,-39.5"/>
<text text-anchor="middle" x="534.5" y="-53.8" font-family="Times,serif" font-size="14.00">dedup_bam</text>
</g>
<!-- markdup&#45;&gt;dedup_bam -->
<g id="edge43" class="edge">
<title>markdup&#45;&gt;dedup_bam</title>
<path fill="none" stroke="black" d="M592.53,-258.48C551.71,-249.9 512.8,-237.88 500.5,-222 469.21,-181.6 497.12,-119.33 517.55,-84.45"/>
<polygon fill="black" stroke="black" points="520.61,-86.16 522.8,-75.79 514.62,-82.53 520.61,-86.16"/>
</g>
<!-- bw -->
<g id="node24" class="node">
<title>bw</title>
<polygon fill="#94ddf4" stroke="black" points="413.5,-39.5 413.5,-75.5 467.5,-75.5 467.5,-39.5 413.5,-39.5"/>
<text text-anchor="middle" x="440.5" y="-53.8" font-family="Times,serif" font-size="14.00">bw</text>
</g>
<!-- bamcoverage&#45;&gt;bw -->
<g id="edge42" class="edge">
<title>bamcoverage&#45;&gt;bw</title>
<path fill="none" stroke="black" d="M309.18,-185.42C335.61,-159.87 385.55,-111.6 415.65,-82.52"/>
<polygon fill="black" stroke="black" points="418.09,-85.03 422.85,-75.56 413.22,-79.99 418.09,-85.03"/>
</g>
<!-- bigbed_q05 -->
<g id="node6" class="node">
<title>bigbed_q05</title>
<polygon fill="lightgoldenrodyellow" stroke="black" points="1582,-112.5 1582,-148.5 1875,-148.5 1875,-112.5 1582,-112.5"/>
<text text-anchor="middle" x="1728.5" y="-126.8" font-family="Times,serif" font-size="14.00">bedToBigBed &#45; Convert BED to BigBed</text>
</g>
<!-- macs3_q05&#45;&gt;bigbed_q05 -->
<g id="edge4" class="edge">
<title>macs3_q05&#45;&gt;bigbed_q05</title>
<path fill="none" stroke="black" d="M1573.36,-185.49C1602.29,-175.42 1639.14,-162.6 1669.66,-151.98"/>
<polygon fill="black" stroke="black" points="1671.03,-155.21 1679.33,-148.61 1668.73,-148.6 1671.03,-155.21"/>
</g>
<!-- peaks_q05 -->
<g id="node28" class="node">
<title>peaks_q05</title>
<polygon fill="#94ddf4" stroke="black" points="1407.5,-39.5 1407.5,-75.5 1499.5,-75.5 1499.5,-39.5 1407.5,-39.5"/>
<text text-anchor="middle" x="1453.5" y="-53.8" font-family="Times,serif" font-size="14.00">peaks_q05</text>
</g>
<!-- macs3_q05&#45;&gt;peaks_q05 -->
<g id="edge46" class="edge">
<title>macs3_q05&#45;&gt;peaks_q05</title>
<path fill="none" stroke="black" d="M1519.72,-185.24C1514.21,-166.59 1504.25,-136.28 1491.5,-112 1486.41,-102.32 1479.8,-92.37 1473.52,-83.73"/>
<polygon fill="black" stroke="black" points="1476.21,-81.48 1467.41,-75.57 1470.6,-85.67 1476.21,-81.48"/>
</g>
<!-- peaks_xls_q05 -->
<g id="node31" class="node">
<title>peaks_xls_q05</title>
<polygon fill="#94ddf4" stroke="black" points="1270,-39.5 1270,-75.5 1389,-75.5 1389,-39.5 1270,-39.5"/>
<text text-anchor="middle" x="1329.5" y="-53.8" font-family="Times,serif" font-size="14.00">peaks_xls_q05</text>
</g>
<!-- macs3_q05&#45;&gt;peaks_xls_q05 -->
<g id="edge49" class="edge">
<title>macs3_q05&#45;&gt;peaks_xls_q05</title>
<path fill="none" stroke="black" d="M1514.12,-185.45C1501.3,-165.56 1477.79,-132.78 1450.5,-112 1439.1,-103.32 1410.06,-90.39 1383.29,-79.41"/>
<polygon fill="black" stroke="black" points="1384.53,-76.14 1373.95,-75.62 1381.9,-82.63 1384.53,-76.14"/>
</g>
<!-- bb_q05 -->
<g id="node21" class="node">
<title>bb_q05</title>
<polygon fill="#94ddf4" stroke="black" points="1517.5,-39.5 1517.5,-75.5 1585.5,-75.5 1585.5,-39.5 1517.5,-39.5"/>
<text text-anchor="middle" x="1551.5" y="-53.8" font-family="Times,serif" font-size="14.00">bb_q05</text>
</g>
<!-- bigbed_q05&#45;&gt;bb_q05 -->
<g id="edge39" class="edge">
<title>bigbed_q05&#45;&gt;bb_q05</title>
<path fill="none" stroke="black" d="M1686.1,-112.49C1658.57,-101.45 1622.77,-87.09 1595.01,-75.95"/>
<polygon fill="black" stroke="black" points="1596.14,-72.63 1585.55,-72.16 1593.53,-79.13 1596.14,-72.63"/>
</g>
<!-- bigbed_q10 -->
<g id="node8" class="node">
<title>bigbed_q10</title>
<polygon fill="lightgoldenrodyellow" stroke="black" points="737,-112.5 737,-148.5 1030,-148.5 1030,-112.5 737,-112.5"/>
<text text-anchor="middle" x="883.5" y="-126.8" font-family="Times,serif" font-size="14.00">bedToBigBed &#45; Convert BED to BigBed</text>
</g>
<!-- macs3_q10&#45;&gt;bigbed_q10 -->
<g id="edge5" class="edge">
<title>macs3_q10&#45;&gt;bigbed_q10</title>
<path fill="none" stroke="black" d="M730.64,-185.49C759.15,-175.42 795.45,-162.6 825.52,-151.98"/>
<polygon fill="black" stroke="black" points="826.79,-155.24 835.05,-148.61 824.46,-148.64 826.79,-155.24"/>
</g>
<!-- peaks_q10 -->
<g id="node29" class="node">
<title>peaks_q10</title>
<polygon fill="#94ddf4" stroke="black" points="739.5,-39.5 739.5,-75.5 831.5,-75.5 831.5,-39.5 739.5,-39.5"/>
<text text-anchor="middle" x="785.5" y="-53.8" font-family="Times,serif" font-size="14.00">peaks_q10</text>
</g>
<!-- macs3_q10&#45;&gt;peaks_q10 -->
<g id="edge47" class="edge">
<title>macs3_q10&#45;&gt;peaks_q10</title>
<path fill="none" stroke="black" d="M688.79,-185.45C696.29,-166.44 710.02,-135.3 727.5,-112 735.54,-101.28 745.91,-90.94 755.65,-82.25"/>
<polygon fill="black" stroke="black" points="757.99,-84.85 763.27,-75.67 753.42,-79.56 757.99,-84.85"/>
</g>
<!-- peaks_xls_q10 -->
<g id="node32" class="node">
<title>peaks_xls_q10</title>
<polygon fill="#94ddf4" stroke="black" points="602,-39.5 602,-75.5 721,-75.5 721,-39.5 602,-39.5"/>
<text text-anchor="middle" x="661.5" y="-53.8" font-family="Times,serif" font-size="14.00">peaks_xls_q10</text>
</g>
<!-- macs3_q10&#45;&gt;peaks_xls_q10 -->
<g id="edge50" class="edge">
<title>macs3_q10&#45;&gt;peaks_xls_q10</title>
<path fill="none" stroke="black" d="M680.01,-185.42C676.41,-160.73 669.72,-114.85 665.44,-85.54"/>
<polygon fill="black" stroke="black" points="668.89,-84.95 663.99,-75.56 661.97,-85.96 668.89,-84.95"/>
</g>
<!-- bb_q10 -->
<g id="node22" class="node">
<title>bb_q10</title>
<polygon fill="#94ddf4" stroke="black" points="849.5,-39.5 849.5,-75.5 917.5,-75.5 917.5,-39.5 849.5,-39.5"/>
<text text-anchor="middle" x="883.5" y="-53.8" font-family="Times,serif" font-size="14.00">bb_q10</text>
</g>
<!-- bigbed_q10&#45;&gt;bb_q10 -->
<g id="edge40" class="edge">
<title>bigbed_q10&#45;&gt;bb_q10</title>
<path fill="none" stroke="black" d="M883.5,-112.31C883.5,-104.29 883.5,-94.55 883.5,-85.57"/>
<polygon fill="black" stroke="black" points="887,-85.53 883.5,-75.53 880,-85.53 887,-85.53"/>
</g>
<!-- bigbed_q20 -->
<g id="node10" class="node">
<title>bigbed_q20</title>
<polygon fill="lightgoldenrodyellow" stroke="black" points="1148,-112.5 1148,-148.5 1441,-148.5 1441,-112.5 1148,-112.5"/>
<text text-anchor="middle" x="1294.5" y="-126.8" font-family="Times,serif" font-size="14.00">bedToBigBed &#45; Convert BED to BigBed</text>
</g>
<!-- macs3_q20&#45;&gt;bigbed_q20 -->
<g id="edge6" class="edge">
<title>macs3_q20&#45;&gt;bigbed_q20</title>
<path fill="none" stroke="black" d="M1134.8,-185.49C1164.71,-175.38 1202.84,-162.49 1234.34,-151.84"/>
<polygon fill="black" stroke="black" points="1235.53,-155.13 1243.88,-148.61 1233.29,-148.5 1235.53,-155.13"/>
</g>
<!-- peaks_q20 -->
<g id="node30" class="node">
<title>peaks_q20</title>
<polygon fill="#94ddf4" stroke="black" points="935.5,-39.5 935.5,-75.5 1027.5,-75.5 1027.5,-39.5 935.5,-39.5"/>
<text text-anchor="middle" x="981.5" y="-53.8" font-family="Times,serif" font-size="14.00">peaks_q20</text>
</g>
<!-- macs3_q20&#45;&gt;peaks_q20 -->
<g id="edge48" class="edge">
<title>macs3_q20&#45;&gt;peaks_q20</title>
<path fill="none" stroke="black" d="M1077.95,-185.49C1070.19,-166.51 1056.06,-135.4 1038.5,-112 1030.47,-101.29 1020.16,-90.89 1010.53,-82.16"/>
<polygon fill="black" stroke="black" points="1012.82,-79.51 1003,-75.53 1008.2,-84.77 1012.82,-79.51"/>
</g>
<!-- peaks_xls_q20 -->
<g id="node33" class="node">
<title>peaks_xls_q20</title>
<polygon fill="#94ddf4" stroke="black" points="1046,-39.5 1046,-75.5 1165,-75.5 1165,-39.5 1046,-39.5"/>
<text text-anchor="middle" x="1105.5" y="-53.8" font-family="Times,serif" font-size="14.00">peaks_xls_q20</text>
</g>
<!-- macs3_q20&#45;&gt;peaks_xls_q20 -->
<g id="edge51" class="edge">
<title>macs3_q20&#45;&gt;peaks_xls_q20</title>
<path fill="none" stroke="black" d="M1086.99,-185.42C1090.59,-160.73 1097.28,-114.85 1101.56,-85.54"/>
<polygon fill="black" stroke="black" points="1105.03,-85.96 1103.01,-75.56 1098.11,-84.95 1105.03,-85.96"/>
</g>
<!-- bb_q20 -->
<g id="node23" class="node">
<title>bb_q20</title>
<polygon fill="#94ddf4" stroke="black" points="1183.5,-39.5 1183.5,-75.5 1251.5,-75.5 1251.5,-39.5 1183.5,-39.5"/>
<text text-anchor="middle" x="1217.5" y="-53.8" font-family="Times,serif" font-size="14.00">bb_q20</text>
</g>
<!-- bigbed_q20&#45;&gt;bb_q20 -->
<g id="edge41" class="edge">
<title>bigbed_q20&#45;&gt;bb_q20</title>
<path fill="none" stroke="black" d="M1275.86,-112.31C1266.12,-103.33 1254.04,-92.19 1243.4,-82.39"/>
<polygon fill="black" stroke="black" points="1245.69,-79.73 1235.97,-75.53 1240.95,-84.88 1245.69,-79.73"/>
</g>
<!-- fixmate -->
<g id="node11" class="node">
<title>fixmate</title>
<polygon fill="lightgoldenrodyellow" stroke="black" points="475,-404.5 475,-440.5 866,-440.5 866,-404.5 475,-404.5"/>
<text text-anchor="middle" x="670.5" y="-418.8" font-family="Times,serif" font-size="14.00">samtools fixmate &#45; Add mate score tags for markdup</text>
</g>
<!-- coord_sort -->
<g id="node12" class="node">
<title>coord_sort</title>
<polygon fill="lightgoldenrodyellow" stroke="black" points="609,-331.5 609,-367.5 806,-367.5 806,-331.5 609,-331.5"/>
<text text-anchor="middle" x="707.5" y="-345.8" font-family="Times,serif" font-size="14.00">samtools sort &#45; Sort BAM</text>
</g>
<!-- fixmate&#45;&gt;coord_sort -->
<g id="edge7" class="edge">
<title>fixmate&#45;&gt;coord_sort</title>
<path fill="none" stroke="black" d="M679.46,-404.31C683.82,-395.94 689.16,-385.7 694,-376.4"/>
<polygon fill="black" stroke="black" points="697.11,-378.01 698.63,-367.53 690.9,-374.78 697.11,-378.01"/>
</g>
<!-- coord_sort&#45;&gt;markdup -->
<g id="edge12" class="edge">
<title>coord_sort&#45;&gt;markdup</title>
<path fill="none" stroke="black" d="M707.5,-331.31C707.5,-323.29 707.5,-313.55 707.5,-304.57"/>
<polygon fill="black" stroke="black" points="711,-304.53 707.5,-294.53 704,-304.53 711,-304.53"/>
</g>
<!-- name_sort&#45;&gt;fixmate -->
<g id="edge8" class="edge">
<title>name_sort&#45;&gt;fixmate</title>
<path fill="none" stroke="black" d="M670.5,-477.31C670.5,-469.29 670.5,-459.55 670.5,-450.57"/>
<polygon fill="black" stroke="black" points="674,-450.53 670.5,-440.53 667,-450.53 674,-450.53"/>
</g>
<!-- genome_fasta -->
<g id="node14" class="node">
<title>genome_fasta</title>
<polygon fill="#94ddf4" stroke="black" points="793,-699.5 793,-735.5 908,-735.5 908,-699.5 793,-699.5"/>
<text text-anchor="middle" x="850.5" y="-713.8" font-family="Times,serif" font-size="14.00">genome_fasta</text>
</g>
<!-- genome_fasta&#45;&gt;align -->
<g id="edge14" class="edge">
<title>genome_fasta&#45;&gt;align</title>
<path fill="none" stroke="black" d="M833.17,-699.34C820.55,-688.09 802.43,-674.33 783.5,-668 739.87,-653.4 412.57,-676.18 369.5,-660 345.58,-651.02 345.08,-639.42 325.5,-623 313.8,-613.19 300.89,-602.39 289.74,-593.08"/>
<polygon fill="black" stroke="black" points="291.9,-590.32 281.98,-586.59 287.41,-595.69 291.9,-590.32"/>
</g>
<!-- sample_id -->
<g id="node15" class="node">
<title>sample_id</title>
<polygon fill="#94ddf4" stroke="black" points="926.5,-699.5 926.5,-735.5 1014.5,-735.5 1014.5,-699.5 926.5,-699.5"/>
<text text-anchor="middle" x="970.5" y="-713.8" font-family="Times,serif" font-size="14.00">sample_id</text>
</g>
<!-- sample_id&#45;&gt;trim -->
<g id="edge27" class="edge">
<title>sample_id&#45;&gt;trim</title>
<path fill="none" stroke="black" d="M956.98,-699.13C947.12,-687.94 932.69,-674.34 916.5,-668 888.2,-656.92 399.86,-661.48 369.5,-660 355.84,-659.33 341.69,-658.49 327.48,-657.54"/>
<polygon fill="black" stroke="black" points="327.35,-654.02 317.13,-656.83 326.87,-661.01 327.35,-654.02"/>
</g>
<!-- sample_id&#45;&gt;align -->
<g id="edge15" class="edge">
<title>sample_id&#45;&gt;align</title>
<path fill="none" stroke="black" d="M956.98,-699.13C947.12,-687.95 932.69,-674.35 916.5,-668 863.84,-647.35 460.7,-679.21 407.5,-660 382.82,-651.09 383.38,-637.47 361.5,-623 344.02,-611.44 323.79,-600.24 306.11,-591.11"/>
<polygon fill="black" stroke="black" points="307.63,-587.95 297.13,-586.52 304.45,-594.19 307.63,-587.95"/>
</g>
<!-- sample_id&#45;&gt;markdup -->
<g id="edge25" class="edge">
<title>sample_id&#45;&gt;markdup</title>
<path fill="none" stroke="black" d="M962.99,-699.22C951.92,-672.13 932.5,-617.74 932.5,-569.5 932.5,-569.5 932.5,-569.5 932.5,-421.5 932.5,-354.59 861.03,-317.36 798.65,-297.61"/>
<polygon fill="black" stroke="black" points="799.32,-294.15 788.73,-294.58 797.28,-300.85 799.32,-294.15"/>
</g>
<!-- sample_id&#45;&gt;bamcoverage -->
<g id="edge16" class="edge">
<title>sample_id&#45;&gt;bamcoverage</title>
<path fill="none" stroke="black" d="M956.95,-699.21C947.07,-688.06 932.64,-674.47 916.5,-668 889.67,-657.25 684.21,-668.23 656.5,-660 596.66,-642.23 582.59,-629.1 536.5,-587 417.15,-477.98 331.85,-298.32 302.59,-231.03"/>
<polygon fill="black" stroke="black" points="305.7,-229.39 298.53,-221.58 299.27,-232.15 305.7,-229.39"/>
</g>
<!-- sample_id&#45;&gt;macs3_q05 -->
<g id="edge22" class="edge">
<title>sample_id&#45;&gt;macs3_q05</title>
<path fill="none" stroke="black" d="M984.33,-699.12C994.05,-688.23 1008.04,-674.97 1023.5,-668 1054.06,-654.22 1068.67,-675.29 1098.5,-660 1146.54,-635.38 1179.5,-623.48 1179.5,-569.5 1179.5,-569.5 1179.5,-569.5 1179.5,-494.5 1179.5,-367.84 1228.15,-320.16 1338.5,-258 1364.8,-243.18 1395.55,-232.18 1424.39,-224.13"/>
<polygon fill="black" stroke="black" points="1425.34,-227.5 1434.08,-221.52 1423.52,-220.74 1425.34,-227.5"/>
</g>
<!-- sample_id&#45;&gt;bigbed_q05 -->
<g id="edge17" class="edge">
<title>sample_id&#45;&gt;bigbed_q05</title>
<path fill="none" stroke="black" d="M983.81,-699.4C993.51,-688.33 1007.67,-674.76 1023.5,-668 1072.65,-647 1092.51,-676.04 1143.5,-660 1217.77,-636.64 1293.5,-647.36 1293.5,-569.5 1293.5,-569.5 1293.5,-569.5 1293.5,-494.5 1293.5,-274.59 1579.98,-401.87 1706.5,-222 1719.55,-203.45 1724.9,-178.06 1727.08,-158.9"/>
<polygon fill="black" stroke="black" points="1730.58,-158.98 1728,-148.7 1723.61,-158.34 1730.58,-158.98"/>
</g>
<!-- sample_id&#45;&gt;macs3_q10 -->
<g id="edge23" class="edge">
<title>sample_id&#45;&gt;macs3_q10</title>
<path fill="none" stroke="black" d="M956.9,-699.31C947.01,-688.21 932.58,-674.63 916.5,-668 884,-654.6 791.58,-671.9 758.5,-660 605.52,-604.95 538.09,-586.47 465.5,-441 433.74,-377.35 490.8,-296.19 532.5,-258 548.34,-243.49 568.38,-232.86 588.62,-225.09"/>
<polygon fill="black" stroke="black" points="590.02,-228.31 598.23,-221.61 587.63,-221.72 590.02,-228.31"/>
</g>
<!-- sample_id&#45;&gt;bigbed_q10 -->
<g id="edge18" class="edge">
<title>sample_id&#45;&gt;bigbed_q10</title>
<path fill="none" stroke="black" d="M970.5,-699.3C970.5,-671.85 970.5,-616.46 970.5,-569.5 970.5,-569.5 970.5,-569.5 970.5,-421.5 970.5,-327.82 927.28,-312.34 902.5,-222 896.71,-200.9 891.7,-176.63 888.28,-158.53"/>
<polygon fill="black" stroke="black" points="891.72,-157.86 886.46,-148.66 884.84,-159.13 891.72,-157.86"/>
</g>
<!-- sample_id&#45;&gt;macs3_q20 -->
<g id="edge24" class="edge">
<title>sample_id&#45;&gt;macs3_q20</title>
<path fill="none" stroke="black" d="M978.01,-699.22C989.08,-672.13 1008.5,-617.74 1008.5,-569.5 1008.5,-569.5 1008.5,-569.5 1008.5,-494.5 1008.5,-394.47 1051.33,-281.19 1072.69,-230.93"/>
<polygon fill="black" stroke="black" points="1075.9,-232.31 1076.65,-221.74 1069.48,-229.53 1075.9,-232.31"/>
</g>
<!-- sample_id&#45;&gt;bigbed_q20 -->
<g id="edge19" class="edge">
<title>sample_id&#45;&gt;bigbed_q20</title>
<path fill="none" stroke="black" d="M988.31,-699.34C1020.38,-667.69 1084.5,-600.5 1084.5,-569.5 1084.5,-569.5 1084.5,-569.5 1084.5,-421.5 1084.5,-301.48 1206.88,-326.17 1266.5,-222 1277.82,-202.22 1285.09,-177.34 1289.38,-158.67"/>
<polygon fill="black" stroke="black" points="1292.83,-159.26 1291.51,-148.75 1285.99,-157.79 1292.83,-159.26"/>
</g>
<!-- sample_id&#45;&gt;fixmate -->
<g id="edge21" class="edge">
<title>sample_id&#45;&gt;fixmate</title>
<path fill="none" stroke="black" d="M955.63,-699.22C945.61,-688.65 931.51,-675.73 916.5,-668 901.93,-660.5 893.66,-669.77 880.5,-660 805.55,-604.38 845.09,-541.36 777.5,-477 763.6,-463.77 745.8,-453.12 728.72,-444.91"/>
<polygon fill="black" stroke="black" points="729.88,-441.59 719.34,-440.6 726.96,-447.96 729.88,-441.59"/>
</g>
<!-- sample_id&#45;&gt;coord_sort -->
<g id="edge20" class="edge">
<title>sample_id&#45;&gt;coord_sort</title>
<path fill="none" stroke="black" d="M950.65,-699.47C939.7,-689.09 926.7,-674.96 918.5,-660 898.49,-623.51 894.5,-611.11 894.5,-569.5 894.5,-569.5 894.5,-569.5 894.5,-494.5 894.5,-453.31 902.25,-434.44 874.5,-404 858.96,-386.95 837.98,-375.3 816.15,-367.36"/>
<polygon fill="black" stroke="black" points="817.01,-363.96 806.42,-364.07 814.77,-370.59 817.01,-363.96"/>
</g>
<!-- sample_id&#45;&gt;name_sort -->
<g id="edge26" class="edge">
<title>sample_id&#45;&gt;name_sort</title>
<path fill="none" stroke="black" d="M956.85,-699.45C946.93,-688.4 932.49,-674.84 916.5,-668 873.88,-649.76 853.91,-680.84 812.5,-660 751.66,-629.39 705.82,-560.23 684.22,-522.41"/>
<polygon fill="black" stroke="black" points="687.18,-520.54 679.25,-513.51 681.07,-523.95 687.18,-520.54"/>
</g>
<!-- chrom_sizes -->
<g id="node16" class="node">
<title>chrom_sizes</title>
<polygon fill="#94ddf4" stroke="black" points="1241.5,-699.5 1241.5,-735.5 1345.5,-735.5 1345.5,-699.5 1241.5,-699.5"/>
<text text-anchor="middle" x="1293.5" y="-713.8" font-family="Times,serif" font-size="14.00">chrom_sizes</text>
</g>
<!-- chrom_sizes&#45;&gt;bigbed_q05 -->
<g id="edge28" class="edge">
<title>chrom_sizes&#45;&gt;bigbed_q05</title>
<path fill="none" stroke="black" d="M1345.95,-712.53C1475.74,-701.26 1801.5,-663.61 1801.5,-569.5 1801.5,-569.5 1801.5,-569.5 1801.5,-275.5 1801.5,-233.89 1797.46,-221.51 1777.5,-185 1771.76,-174.51 1763.54,-164.44 1755.47,-155.93"/>
<polygon fill="black" stroke="black" points="1757.7,-153.21 1748.17,-148.57 1752.73,-158.14 1757.7,-153.21"/>
</g>
<!-- chrom_sizes&#45;&gt;bigbed_q10 -->
<g id="edge29" class="edge">
<title>chrom_sizes&#45;&gt;bigbed_q10</title>
<path fill="none" stroke="black" d="M1319.37,-699.47C1353,-675.05 1407.5,-626.66 1407.5,-569.5 1407.5,-569.5 1407.5,-569.5 1407.5,-494.5 1407.5,-343.34 1387.65,-275.4 1266.5,-185 1247.9,-171.12 1137.69,-156.63 1040.24,-146.24"/>
<polygon fill="black" stroke="black" points="1040.56,-142.75 1030.25,-145.18 1039.82,-149.71 1040.56,-142.75"/>
</g>
<!-- chrom_sizes&#45;&gt;bigbed_q20 -->
<g id="edge30" class="edge">
<title>chrom_sizes&#45;&gt;bigbed_q20</title>
<path fill="none" stroke="black" d="M1345.61,-709.97C1460.51,-694.11 1725.5,-648.92 1725.5,-569.5 1725.5,-569.5 1725.5,-569.5 1725.5,-275.5 1725.5,-234.4 1736.67,-212.91 1706.5,-185 1687.44,-167.37 1559.45,-152.64 1451.12,-143.13"/>
<polygon fill="black" stroke="black" points="1451.3,-139.64 1441.04,-142.26 1450.7,-146.61 1451.3,-139.64"/>
</g>
<!-- format -->
<g id="node17" class="node">
<title>format</title>
<polygon fill="#94ddf4" stroke="black" points="1033,-699.5 1033,-735.5 1098,-735.5 1098,-699.5 1033,-699.5"/>
<text text-anchor="middle" x="1065.5" y="-713.8" font-family="Times,serif" font-size="14.00">format</text>
</g>
<!-- format&#45;&gt;macs3_q05 -->
<g id="edge31" class="edge">
<title>format&#45;&gt;macs3_q05</title>
<path fill="none" stroke="black" d="M1075.65,-699.09C1083.02,-688.18 1094.03,-674.93 1107.5,-668 1124.57,-659.22 1178.85,-672.4 1193.5,-660 1225.27,-633.12 1217.5,-611.11 1217.5,-569.5 1217.5,-569.5 1217.5,-569.5 1217.5,-494.5 1217.5,-413.4 1242.62,-389.77 1298.5,-331 1345.8,-281.26 1417.06,-245.86 1466.88,-225.38"/>
<polygon fill="black" stroke="black" points="1468.26,-228.59 1476.23,-221.61 1465.65,-222.1 1468.26,-228.59"/>
</g>
<!-- format&#45;&gt;macs3_q10 -->
<g id="edge32" class="edge">
<title>format&#45;&gt;macs3_q10</title>
<path fill="none" stroke="black" d="M1061.84,-699.39C1056.32,-672.07 1046.5,-616.85 1046.5,-569.5 1046.5,-569.5 1046.5,-569.5 1046.5,-494.5 1046.5,-471.58 925.42,-288.07 882.5,-258 861.03,-242.96 835.56,-232.14 810.12,-224.37"/>
<polygon fill="black" stroke="black" points="810.95,-220.97 800.37,-221.54 809,-227.69 810.95,-220.97"/>
</g>
<!-- format&#45;&gt;macs3_q20 -->
<g id="edge33" class="edge">
<title>format&#45;&gt;macs3_q20</title>
<path fill="none" stroke="black" d="M1081.25,-699.43C1103.51,-673.45 1141.5,-621.5 1141.5,-569.5 1141.5,-569.5 1141.5,-569.5 1141.5,-494.5 1141.5,-395.85 1109.35,-281.81 1093.34,-231.14"/>
<polygon fill="black" stroke="black" points="1096.67,-230.05 1090.28,-221.59 1090,-232.18 1096.67,-230.05"/>
</g>
<!-- genome_size -->
<g id="node18" class="node">
<title>genome_size</title>
<polygon fill="#94ddf4" stroke="black" points="1116,-699.5 1116,-735.5 1223,-735.5 1223,-699.5 1116,-699.5"/>
<text text-anchor="middle" x="1169.5" y="-713.8" font-family="Times,serif" font-size="14.00">genome_size</text>
</g>
<!-- genome_size&#45;&gt;macs3_q05 -->
<g id="edge34" class="edge">
<title>genome_size&#45;&gt;macs3_q05</title>
<path fill="none" stroke="black" d="M1185.99,-699.45C1197.81,-688.41 1214.73,-674.85 1232.5,-668 1253.3,-659.98 1314.5,-673.16 1332.5,-660 1367.58,-634.36 1369.5,-612.95 1369.5,-569.5 1369.5,-569.5 1369.5,-569.5 1369.5,-494.5 1369.5,-384.72 1456.96,-276.24 1500.48,-229.04"/>
<polygon fill="black" stroke="black" points="1503.04,-231.43 1507.32,-221.74 1497.93,-226.65 1503.04,-231.43"/>
</g>
<!-- genome_size&#45;&gt;macs3_q10 -->
<g id="edge35" class="edge">
<title>genome_size&#45;&gt;macs3_q10</title>
<path fill="none" stroke="black" d="M1187.74,-699.4C1212.98,-673.77 1255.5,-622.72 1255.5,-569.5 1255.5,-569.5 1255.5,-569.5 1255.5,-494.5 1255.5,-316.72 1033.21,-247.9 865.54,-221.27"/>
<polygon fill="black" stroke="black" points="866,-217.8 855.58,-219.73 864.93,-224.72 866,-217.8"/>
</g>
<!-- genome_size&#45;&gt;macs3_q20 -->
<g id="edge36" class="edge">
<title>genome_size&#45;&gt;macs3_q20</title>
<path fill="none" stroke="black" d="M1186.3,-699.36C1198.14,-688.43 1214.95,-675.03 1232.5,-668 1248.06,-661.76 1294.78,-670.91 1307.5,-660 1339.09,-632.91 1331.5,-611.11 1331.5,-569.5 1331.5,-569.5 1331.5,-569.5 1331.5,-494.5 1331.5,-368.55 1194.8,-269.5 1124.79,-227.03"/>
<polygon fill="black" stroke="black" points="1126.16,-223.77 1115.78,-221.66 1122.58,-229.79 1126.16,-223.77"/>
</g>
<!-- fastq_fwd -->
<g id="node19" class="node">
<title>fastq_fwd</title>
<polygon fill="#94ddf4" stroke="black" points="688.5,-699.5 688.5,-735.5 774.5,-735.5 774.5,-699.5 688.5,-699.5"/>
<text text-anchor="middle" x="731.5" y="-713.8" font-family="Times,serif" font-size="14.00">fastq_fwd</text>
</g>
<!-- fastq_fwd&#45;&gt;trim -->
<g id="edge37" class="edge">
<title>fastq_fwd&#45;&gt;trim</title>
<path fill="none" stroke="black" d="M718.28,-699.18C708.62,-688.01 694.47,-674.42 678.5,-668 660.61,-660.81 350.75,-661.19 331.5,-660 330.19,-659.92 328.87,-659.83 327.54,-659.75"/>
<polygon fill="black" stroke="black" points="327.52,-656.24 317.31,-659.05 327.05,-663.22 327.52,-656.24"/>
</g>
<!-- fastq_rev -->
<g id="node20" class="node">
<title>fastq_rev</title>
<polygon fill="#94ddf4" stroke="black" points="587,-699.5 587,-735.5 670,-735.5 670,-699.5 587,-699.5"/>
<text text-anchor="middle" x="628.5" y="-713.8" font-family="Times,serif" font-size="14.00">fastq_rev</text>
</g>
<!-- fastq_rev&#45;&gt;trim -->
<g id="edge38" class="edge">
<title>fastq_rev&#45;&gt;trim</title>
<path fill="none" stroke="black" d="M586.79,-709.93C517.87,-699.08 377.77,-677.02 276.54,-661.09"/>
<polygon fill="black" stroke="black" points="276.99,-657.61 266.56,-659.51 275.9,-664.53 276.99,-657.61"/>
</g>
</g>
</svg>
